<?xml version="1.0" encoding="UTF-8"?>
<svg width="205px" height="65px" viewBox="0 0 205 65" version="1.1" xmlns="http://www.w3.org/2000/svg" xmlns:xlink="http://www.w3.org/1999/xlink">
    <title>cado_labs_supporting</title>
    <g id="Logotypes" stroke="none" stroke-width="1" fill="none" fill-rule="evenodd">
        <g id="cado_labs_supporting">
            <rect id="Rectangle" fill="#231F20" x="0" y="0" width="205" height="65"></rect>
            <text id="Supported-by" font-family="Helvetica-Bold, Helvetica" font-size="10" font-weight="bold" fill="#FFFFFF">
                <tspan x="12.7783203" y="17">Supported by</tspan>
            </text>
            <g id="cado_logo_horizontal_symb_wb" transform="translate(13.000000, 22.500000)">
                <g id="Group-5">
                    <path d="M10.1127804,28.1791794 C12.0016317,28.1791794 13.4075866,27.8037264 14.3306452,27.0528331 C15.2537037,26.3019398 15.7611722,25.0962226 15.8530508,23.4356815 C15.8845672,23.1804492 15.8311495,22.9816233 15.6927975,22.8392037 C15.5544456,22.6967841 15.3517253,22.6255743 15.0846366,22.6255743 C14.5718263,22.6255743 14.2895135,22.8859112 14.2376983,23.406585 C14.1666527,24.6240429 13.8178348,25.4663093 13.1912448,25.9333844 C12.5646547,26.4004594 11.5384999,26.6332312 10.1127804,26.6316998 L6.41573855,26.6316998 C5.22505712,26.6316998 4.28089856,26.4844308 3.58326287,26.1898928 C2.90417194,25.9130043 2.36350865,25.3957931 2.07447879,24.7465544 C1.7667926,24.0778458 1.61294951,23.1743236 1.61294951,22.0359877 L1.61294951,22.0359877 L1.61294951,15.3338438 C1.61294951,14.194487 1.7643888,13.2884125 2.06726739,12.6156202 C2.34909037,11.9633529 2.88988121,11.4443659 3.57124388,11.1722818 C4.26941374,10.8818275 5.20823053,10.7368555 6.38769424,10.737366 L10.1127804,10.737366 C11.539034,10.737366 12.5651888,10.9706483 13.1912448,11.4372129 C13.8173007,11.9037774 14.1661185,12.7460439 14.2376983,13.9640123 C14.291116,14.4841756 14.5734288,14.7442573 15.0846366,14.7442573 C15.3517253,14.7442573 15.5544456,14.6755998 15.6927975,14.5382848 C15.8311495,14.4009699 15.8845672,14.1995916 15.8530508,13.9341501 C15.7611722,12.2741194 15.2537037,11.0686575 14.3306452,10.3177642 C13.4075866,9.56687085 12.0016317,9.19116896 10.1127804,9.1906585 L6.38769424,9.1906585 C4.17139219,9.1906585 2.55256756,9.6755998 1.53122037,10.6454824 C0.50987317,11.615365 -0.000533340355,13.176876 4.18196578e-07,15.3300153 L4.18196578e-07,15.3300153 L4.18196578e-07,22.0375191 C4.18196578e-07,24.1687085 0.513078234,25.7256253 1.53923303,26.7082695 C2.56538782,27.6909137 4.19088966,28.1812149 6.41573855,28.1791794 L10.1095753,28.1791794 L10.1127804,28.1791794 Z M53.1207387,28.179173 C55.6757092,28.179173 57.5357149,27.6194487 58.7007558,26.5 C59.8657967,25.3805513 60.4480501,23.5980092 60.4475163,21.1523737 L60.4475163,21.1523737 L60.4475163,16.2182236 C60.4475163,13.7725881 59.8652626,11.9900459 58.7007558,10.8705972 C57.5362491,9.75114855 55.6762434,9.1914242 53.1207387,9.1914242 L45.7018158,9.1914242 C45.1580232,9.1914242 44.8861269,9.4517611 44.8861269,9.97243492 L44.8861269,9.97243492 L44.8861269,27.3973966 C44.8861269,27.9170495 45.1580232,28.1771312 45.7018158,28.1776417 L53.1207387,28.1776417 L53.1207387,28.179173 Z M53.1207387,26.6324655 L46.5022806,26.6324655 L46.5022806,10.737366 L53.1207387,10.737366 C54.5165442,10.737366 55.6324408,10.9160286 56.4684284,11.2733538 C57.2820701,11.610235 57.9293936,12.2326599 58.2768861,13.0122511 C58.647071,13.8126595 58.8318964,14.8805513 58.8313634,16.2159265 L58.8313634,16.2159265 L58.8313634,21.1508423 C58.8313634,22.4959163 58.6465368,23.5678918 58.2768861,24.3667688 C57.9304178,25.1452253 57.2824323,25.7655432 56.4684284,26.0980092 C55.6313725,26.453803 54.5154759,26.6316998 53.1207387,26.6316998 L53.1207387,26.6324655 Z M75.484877,28.179173 C77.7123967,28.179173 79.3365631,27.6881062 80.3573762,26.7059724 C81.3781892,25.7238387 81.8885957,24.1669219 81.8885957,22.0352221 L81.8885957,22.0352221 L81.8885957,15.3338438 C81.8885957,13.2026544 81.3781892,11.6457376 80.3573762,10.6630934 C79.3365631,9.68044921 77.7123967,9.18963757 75.484877,9.1906585 L71.7605921,9.1906585 C69.5539052,9.17075038 67.9374844,9.64956611 66.9113296,10.6271057 C65.8851748,11.6046452 65.3720974,13.1687085 65.3720974,15.3192956 L65.3720974,15.3192956 L65.3720974,22.0375191 C65.3720974,24.1687085 65.8851748,25.7256253 66.9113296,26.7082695 C67.9374844,27.6909137 69.5640546,28.1819806 71.7910402,28.1814705 L75.484877,28.1814705 L75.484877,28.179173 Z M75.484877,26.6324655 L71.7910402,26.6324655 C70.6003588,26.6324655 69.6562002,26.4851965 68.9585645,26.1906585 C68.2795377,25.9139437 67.739069,25.3966438 67.4505817,24.7473201 C67.1444981,24.079122 66.9914562,23.175855 66.9914562,22.0375191 L66.9914562,22.0375191 L66.9914562,15.3192956 C66.9914562,14.1799387 67.1455664,13.2738642 67.4537868,12.601072 C67.7374943,11.9510622 68.2761789,11.4329925 68.9545582,11.1577335 C69.6489888,10.8677897 70.5854018,10.7276672 71.7637972,10.737366 L75.484877,10.737366 C76.665409,10.737366 77.6044929,10.8871873 78.3021286,11.18683 C78.981596,11.4690479 79.5217033,11.9898388 79.8109127,12.6416539 C80.1185989,13.3093415 80.2724419,14.2080143 80.2724419,15.3376723 L80.2724419,15.3376723 L80.2724419,22.0375191 C80.2724419,23.1763655 80.1185989,24.0798877 79.8109127,24.7480858 C79.5218828,25.3973245 78.9812195,25.9145357 78.3021286,26.1914242 C77.6050271,26.4849413 76.6659432,26.6316998 75.484877,26.6316998 L75.484877,26.6324655 Z" id="Shape" fill="#FFFFFF" fill-rule="nonzero"></path>
                    <g id="Group-2" transform="translate(18.126243, 0.000000)">
                        <path d="M12.6479855,28.7067381 L11.342723,28.7067381 C6.57118334,28.6998469 2.70347184,25.0543645 2.69786298,20.5543645 C2.69786298,17.8744257 4.65134975,15.8376723 4.72907256,12.280245 C4.72907256,8.50306279 7.97580283,5.44180704 11.9813321,5.44180704 C15.9868614,5.44180704 19.2335916,8.50459418 19.2335916,12.280245 C19.3377562,15.9050536 21.2688075,17.8093415 21.2648074,20.5543645 C21.2575898,25.0444104 17.4067049,28.6860643 12.6447804,28.7067381 L12.6479855,28.7067381 Z" id="Path" stroke="#4DE1B4" stroke-width="1.57996134" fill-rule="nonzero"></path>
                        <path d="M12.0013637,23.2787136 C13.771472,23.2787136 15.2064282,21.9074571 15.2064282,20.2159265 C15.2064282,18.5243959 13.771472,17.1531394 12.0013637,17.1531394 C10.2312555,17.1531394 8.79629932,18.5243959 8.79629932,20.2159265 C8.79629932,21.9074571 10.2312555,23.2787136 12.0013637,23.2787136 L12.0013637,23.2787136 Z" id="Path" fill="#4DE1B4" fill-rule="nonzero"></path>
                        <path d="M0,0.307810107 C0.0972202876,4.88718734 0.39101786,7.85145482 0.881392717,9.20061256 C1.37176757,10.5497703 2.57767307,11.7452782 4.49910919,12.7871363 M14.2465114,0 C14.3426633,4.57937723 14.6364609,7.54364472 15.1279041,8.89280245 C15.6193473,10.2419602 16.8249857,11.4374681 18.7448193,12.4793262" id="Shape" stroke="#4DE1B4" stroke-width="1.57996134" stroke-linecap="round"></path>
                        <path d="M15.9019272,28.0941807 C15.5846258,28.6776417 15.3519915,29.5079122 15.2040244,30.5849923 C15.0560572,31.6620725 15.2529016,33.0005105 15.7945575,34.6003063" id="Path" stroke="#4DE1B4" stroke-width="1.57996134" stroke-linecap="round"></path>
                        <path d="M8.28589281,28.6577335 C7.84840152,29.1651353 7.44028998,29.9308321 7.0615582,30.9548239 C6.68282642,31.9788157 6.58427069,33.3272078 6.76589101,35" id="Path" stroke="#4DE1B4" stroke-width="1.57996134" stroke-linecap="round"></path>
                        <path d="M8.79629932,12.2672503 C9.00997028,11.951258 9.33047672,11.7932619 9.75781865,11.7932619 C10.1851606,11.7932619 10.505667,11.951258 10.719338,12.2672503 M13.2833895,12.2672503 C13.4970605,11.951258 13.8175669,11.7932619 14.2449088,11.7932619 C14.6722508,11.7932619 14.9927572,11.951258 15.2064282,12.2672503" id="Shape" stroke="#4DE1B4" stroke-width="1.25" stroke-linecap="round"></path>
                    </g>
                </g>
                <path d="M112.263236,28.101072 C112.806549,28.101072 113.078205,27.8408103 113.078205,27.320287 C113.078205,26.8095849 112.806549,26.5542338 112.263236,26.5542338 L112.263236,26.5542338 L102.914155,26.5542338 L102.914155,9.89257672 C102.914155,9.37205339 102.647624,9.11179173 102.114562,9.11179173 C101.57125,9.11179173 101.299593,9.37205339 101.299593,9.89257672 L101.299593,9.89257672 L101.299593,27.320287 C101.299593,27.8408103 101.57125,28.101072 102.114562,28.101072 L102.114562,28.101072 L112.263236,28.101072 Z M134.501672,27.6022656 C134.697222,28.0733605 135.047152,28.2107632 135.551463,28.0144737 C136.045482,27.8083696 136.189571,27.464863 135.98373,26.9839536 L135.98373,26.9839536 L128.326433,9.71538204 C128.151468,9.32280298 127.852998,9.12160621 127.431023,9.11179173 L127.431023,9.11179173 L127.338394,9.11179173 C126.895835,9.11179173 126.592219,9.3129885 126.427546,9.71538204 L126.427546,9.71538204 L118.770249,26.9839536 C118.5747,27.464863 118.723935,27.8083696 119.217954,28.0144737 C119.722265,28.2107632 120.077342,28.0733605 120.283183,27.6022656 L120.283183,27.6022656 L122.33645,22.9649254 L132.448405,22.9649254 L134.501672,27.6022656 Z M131.747705,21.43951 L123.013905,21.43951 L127.380805,11.5620214 L131.747705,21.43951 Z M151.338958,28.101072 C153.094467,28.101072 154.421364,27.6713947 155.319651,26.8120402 C156.217938,25.9526856 156.667081,24.6882068 156.667081,23.0186036 L156.667081,23.0186036 L156.667081,22.0905007 C156.667081,19.733414 155.768795,18.2013076 153.972221,17.4941815 C155.009101,16.8558039 155.52754,15.7656512 155.52754,14.2237237 L155.52754,14.2237237 L155.52754,13.4282069 C155.52754,12.0139548 155.139994,10.9409893 154.364901,10.2093103 C153.589808,9.47763124 152.4477,9.11179173 150.938579,9.11179173 L150.938579,9.11179173 L142.900196,9.11179173 C142.356091,9.11179173 142.084038,9.37205339 142.084038,9.89257672 L142.084038,9.89257672 L142.084038,27.320287 C142.084038,27.8408103 142.356091,28.101072 142.900196,28.101072 L142.900196,28.101072 L151.338958,28.101072 Z M151.13061,16.9984686 L143.68657,16.9984686 L143.68657,10.6431853 L150.900382,10.6431853 C151.944083,10.6431853 152.698719,10.8584528 153.164291,11.2889878 C153.629864,11.7195227 153.86265,12.4240345 153.86265,13.4025231 L153.86265,13.4025231 L153.86265,14.1950988 C153.86265,15.1540176 153.640096,15.8609756 153.194989,16.3159728 C152.749881,16.77097 152.061755,16.9984686 151.13061,16.9984686 L151.13061,16.9984686 Z M151.343935,26.5696784 L143.68657,26.5696784 L143.68657,18.6064319 L151.343935,18.6064319 C152.661331,18.6064319 153.610782,18.8811958 154.192289,19.4307235 C154.773796,19.9802513 155.064549,20.873234 155.064549,22.1096716 L155.064549,22.1096716 L155.064549,23.0369997 C155.064549,24.2734373 154.771223,25.1713264 154.18457,25.7306672 C153.597917,26.290008 152.651038,26.5696784 151.343935,26.5696784 L151.343935,26.5696784 Z M171.986143,28.0245023 C173.895971,28.0245023 175.292404,27.6056894 176.175442,26.7680635 C177.058481,25.9304376 177.5,24.6054212 177.5,22.7930144 C177.5,20.9806075 177.058481,19.6506927 176.175442,18.8032701 C175.292404,17.9558474 173.895971,17.5321361 171.986143,17.5321361 L171.986143,17.5321361 L167.76604,17.5321361 C166.410679,17.5321361 165.4686,17.2798686 164.939804,16.7753337 C164.411007,16.2707989 164.146609,15.3768414 164.146609,14.0934614 C164.146609,12.8100814 164.40844,11.916124 164.932103,11.4115891 C165.455765,10.9070542 166.390143,10.6547868 167.735237,10.6547868 L167.735237,10.6547868 L172.04775,10.6547868 C173.320969,10.6547868 174.224543,10.880113 174.758473,11.3307655 C175.292404,11.7814181 175.579905,12.57006 175.620976,13.6966913 C175.641512,13.9318143 175.723655,14.1179534 175.867406,14.2551085 C176.011156,14.3922636 176.201112,14.4608412 176.437273,14.4608412 C176.693971,14.4608412 176.896761,14.3898144 177.045646,14.2477609 C177.19453,14.1057074 177.258705,13.9171191 177.238169,13.6819961 C177.176561,12.1047123 176.727341,10.9486906 175.890508,10.213931 C175.053675,9.4791715 173.772756,9.11179173 172.04775,9.11179173 L172.04775,9.11179173 L167.735237,9.11179173 C165.938356,9.11179173 164.621499,9.51346028 163.784666,10.3167974 C162.947833,11.1201345 162.529417,12.3790225 162.529417,14.0934614 C162.529417,15.8079003 162.9504,17.0667884 163.792367,17.8701255 C164.634334,18.6734625 165.958892,19.0751311 167.76604,19.0751311 L167.76604,19.0751311 L171.986143,19.0751311 C173.444183,19.0751311 174.458138,19.3469921 175.028006,19.8907142 C175.597873,20.4344362 175.882807,21.4018696 175.882807,22.7930144 C175.882807,24.1645655 175.597873,25.1222021 175.028006,25.6659242 C174.458138,26.2096462 173.444183,26.4815073 171.986143,26.4815073 L171.986143,26.4815073 L167.550415,26.4815073 C166.153982,26.4815073 165.168264,26.2365874 164.593262,25.7467477 C164.018261,25.256908 163.710224,24.3947902 163.669152,23.1603941 C163.648617,22.9252711 163.566473,22.739132 163.422723,22.6019769 C163.278972,22.4648218 163.083883,22.3962442 162.837453,22.3962442 C162.591024,22.3962442 162.393367,22.467271 162.244483,22.6093245 C162.095598,22.751378 162.02629,22.9399663 162.036558,23.1750893 C162.098165,24.8503411 162.573055,26.0773895 163.461228,26.8562346 C164.3494,27.6350797 165.712462,28.0245023 167.550415,28.0245023 L167.550415,28.0245023 L171.986143,28.0245023 Z M91.6204993,22.6059233 C92.9637734,22.6059233 94.1747666,21.8320239 94.6887481,20.6451229 C95.2027296,19.4582219 94.9184693,18.092083 93.9685282,17.1837871 C93.0185871,16.2754912 91.5900589,16.0039299 90.349119,16.4957421 C89.1081791,16.9875544 88.2992342,18.1458763 88.299525,19.4305399 C88.2999223,21.184367 89.7866568,22.6059233 91.6204993,22.6059233 L91.6204993,22.6059233 Z" id="LABS" fill="#FFFFFF" fill-rule="nonzero"></path>
            </g>
        </g>
    </g>
</svg>