<?xml version="1.0" encoding="UTF-8"?>
<svg width="144px" height="68px" viewBox="0 0 144 68" version="1.1" xmlns="http://www.w3.org/2000/svg" xmlns:xlink="http://www.w3.org/1999/xlink">
    <title>cado_labs_supporting_new_clear</title>
    <g id="cado_labs_supporting_new_clear" stroke="none" stroke-width="1" fill="none" fill-rule="evenodd">
        <path d="M6,0 L138,0 C141.3,0 144,2.7 144,6 L144,62 C144,65.3 141.3,68 138,68 L6,68 C2.7,68 0,65.3 0,62 L0,6 C0,2.7 2.7,0 6,0" id="Fill-1" fill="#231F20"></path>
        <path d="M55.212,52.035 C53.074,52.035 51.495,51.524 50.473,50.502 C49.451,49.48 48.94,47.9 48.94,45.763 L48.94,39.323 C48.94,37.167 49.448,35.578 50.466,34.556 C51.483,33.534 53.056,33.032 55.184,33.051 L58.572,33.051 C60.326,33.051 61.665,33.413 62.59,34.136 C63.514,34.859 64.05,36 64.2,37.559 C64.256,37.951 64.181,38.25 63.976,38.455 C63.771,38.66 63.472,38.763 63.08,38.763 C62.37,38.763 61.959,38.371 61.848,37.587 C61.754,36.728 61.458,36.15 60.958,35.851 C60.459,35.552 59.664,35.403 58.572,35.403 L55.184,35.403 C54.194,35.394 53.417,35.506 52.853,35.739 C52.288,35.972 51.887,36.376 51.649,36.95 C51.411,37.524 51.291,38.315 51.291,39.323 L51.291,45.763 C51.291,46.762 51.411,47.546 51.649,48.115 C51.887,48.684 52.29,49.088 52.86,49.326 C53.429,49.564 54.213,49.683 55.212,49.683 L58.572,49.683 C59.664,49.683 60.459,49.531 60.958,49.228 C61.458,48.924 61.754,48.348 61.848,47.499 C61.959,46.715 62.37,46.323 63.08,46.323 C63.472,46.323 63.771,46.426 63.976,46.631 C64.181,46.836 64.256,47.135 64.2,47.527 C64.05,49.095 63.514,50.239 62.59,50.957 C61.665,51.676 60.326,52.035 58.572,52.035 L55.212,52.035" id="Fill-2" fill="#FFFFFE"></path>
        <path d="M72.081,45.259 L78.913,45.259 L75.428,36.775 L72.081,45.259 Z M68.203,51.923 C67.457,51.634 67.232,51.12 67.531,50.383 L74.195,33.975 C74.476,33.359 74.914,33.051 75.512,33.051 L75.567,33.051 C76.174,33.079 76.585,33.387 76.8,33.975 L83.575,50.383 C83.874,51.12 83.659,51.634 82.932,51.923 C82.194,52.212 81.681,51.998 81.392,51.279 L79.88,47.611 L71.157,47.611 L69.716,51.279 C69.426,52.007 68.922,52.221 68.203,51.923 L68.203,51.923 Z" id="Fill-3" fill="#FFFFFE"></path>
        <path d="M90.099,49.683 L95.671,49.683 C96.865,49.683 97.811,49.536 98.506,49.242 C99.201,48.948 99.696,48.453 99.99,47.758 C100.284,47.063 100.431,46.118 100.431,44.923 L100.431,40.163 C100.431,38.978 100.284,38.037 99.99,37.342 C99.696,36.647 99.201,36.15 98.506,35.851 C97.811,35.552 96.865,35.403 95.671,35.403 L90.099,35.403 L90.099,49.683 Z M88.923,52.035 C88.139,52.035 87.747,51.643 87.747,50.859 L87.747,34.227 C87.747,33.443 88.139,33.051 88.923,33.051 L95.671,33.051 C98.107,33.051 99.901,33.627 101.054,34.78 C102.207,35.933 102.783,37.727 102.783,40.163 L102.783,44.923 C102.783,47.359 102.211,49.153 101.068,50.306 C99.925,51.459 98.126,52.035 95.671,52.035 L88.923,52.035 L88.923,52.035 Z" id="Fill-4" fill="#FFFFFE"></path>
        <path d="M113.535,49.683 L116.896,49.683 C117.894,49.683 118.678,49.564 119.247,49.326 C119.816,49.088 120.221,48.684 120.458,48.115 C120.696,47.546 120.815,46.762 120.815,45.763 L120.815,39.323 C120.815,38.334 120.696,37.554 120.458,36.985 C120.221,36.416 119.816,36.009 119.247,35.767 C118.678,35.524 117.894,35.403 116.896,35.403 L113.535,35.403 C112.546,35.394 111.767,35.506 111.197,35.739 C110.628,35.972 110.222,36.374 109.979,36.943 C109.736,37.512 109.615,38.296 109.615,39.295 L109.615,45.763 C109.615,46.762 109.734,47.546 109.973,48.115 C110.21,48.684 110.614,49.088 111.184,49.326 C111.753,49.564 112.537,49.683 113.535,49.683 Z M113.535,52.035 C111.398,52.035 109.818,51.524 108.797,50.502 C107.774,49.48 107.264,47.9 107.264,45.763 L107.264,39.295 C107.264,37.139 107.776,35.555 108.804,34.542 C109.83,33.529 111.407,33.032 113.535,33.051 L116.896,33.051 C119.042,33.051 120.624,33.56 121.642,34.577 C122.658,35.594 123.167,37.177 123.167,39.323 L123.167,45.763 C123.167,47.9 122.658,49.48 121.642,50.502 C120.624,51.524 119.042,52.035 116.896,52.035 L113.535,52.035 L113.535,52.035 Z" id="Fill-5" fill="#FFFFFE"></path>
        <path d="M21.635,15.805 C21.682,16.134 21.773,16.38 21.91,16.543 C22.159,16.839 22.586,16.987 23.191,16.987 C23.553,16.987 23.847,16.948 24.073,16.87 C24.502,16.72 24.717,16.441 24.717,16.035 C24.717,15.797 24.612,15.613 24.402,15.483 C24.192,15.356 23.858,15.244 23.402,15.146 L22.623,14.975 C21.857,14.806 21.331,14.622 21.045,14.423 C20.56,14.091 20.317,13.572 20.317,12.866 C20.317,12.221 20.554,11.686 21.029,11.259 C21.504,10.833 22.2,10.62 23.12,10.62 C23.887,10.62 24.542,10.821 25.085,11.223 C25.627,11.625 25.911,12.208 25.937,12.973 L24.492,12.973 C24.465,12.54 24.272,12.233 23.911,12.05 C23.671,11.93 23.372,11.87 23.015,11.87 C22.618,11.87 22.301,11.948 22.064,12.104 C21.827,12.26 21.709,12.479 21.709,12.758 C21.709,13.016 21.825,13.208 22.059,13.335 C22.209,13.419 22.528,13.519 23.015,13.632 L24.279,13.93 C24.832,14.061 25.247,14.235 25.523,14.453 C25.952,14.791 26.167,15.281 26.167,15.923 C26.167,16.58 25.912,17.126 25.404,17.561 C24.896,17.995 24.178,18.213 23.25,18.213 C22.302,18.213 21.557,17.999 21.014,17.57 C20.471,17.142 20.2,16.554 20.2,15.805 L21.635,15.805" id="Fill-6" fill="#FFFFFE"></path>
        <path d="M28.496,12.705 L28.496,15.913 C28.496,16.215 28.531,16.444 28.603,16.596 C28.729,16.866 28.977,17.002 29.346,17.002 C29.819,17.002 30.143,16.81 30.318,16.425 C30.409,16.217 30.454,15.942 30.454,15.6 L30.454,12.705 L31.865,12.705 L31.865,18.027 L30.512,18.027 L30.512,17.275 C30.499,17.291 30.467,17.34 30.415,17.422 C30.363,17.503 30.302,17.574 30.23,17.636 C30.012,17.832 29.802,17.965 29.599,18.037 C29.397,18.108 29.159,18.144 28.886,18.144 C28.101,18.144 27.572,17.861 27.299,17.295 C27.146,16.982 27.07,16.522 27.07,15.913 L27.07,12.705 L28.496,12.705" id="Fill-7" fill="#FFFFFE"></path>
        <path d="M36.625,14.277 C36.436,13.961 36.13,13.803 35.705,13.803 C35.196,13.803 34.845,14.043 34.655,14.521 C34.556,14.775 34.507,15.097 34.507,15.488 C34.507,16.106 34.673,16.541 35.005,16.792 C35.202,16.938 35.435,17.011 35.705,17.011 C36.097,17.011 36.395,16.861 36.6,16.562 C36.806,16.263 36.909,15.864 36.909,15.366 C36.909,14.956 36.814,14.593 36.625,14.277 Z M37.693,13.276 C38.127,13.735 38.344,14.409 38.344,15.298 C38.344,16.235 38.132,16.949 37.708,17.441 C37.284,17.933 36.738,18.178 36.069,18.178 C35.643,18.178 35.289,18.072 35.008,17.861 C34.854,17.744 34.703,17.573 34.555,17.348 L34.555,20.122 L33.178,20.122 L33.178,12.705 L34.511,12.705 L34.511,13.491 C34.662,13.26 34.823,13.077 34.993,12.944 C35.304,12.706 35.675,12.588 36.104,12.588 C36.729,12.588 37.259,12.817 37.693,13.276 L37.693,13.276 Z" id="Fill-8" fill="#FFFFFE"></path>
        <path d="M42.734,14.277 C42.545,13.961 42.238,13.803 41.814,13.803 C41.304,13.803 40.954,14.043 40.763,14.521 C40.664,14.775 40.615,15.097 40.615,15.488 C40.615,16.106 40.781,16.541 41.113,16.792 C41.31,16.938 41.544,17.011 41.813,17.011 C42.205,17.011 42.503,16.861 42.709,16.562 C42.914,16.263 43.017,15.864 43.017,15.366 C43.017,14.956 42.923,14.593 42.734,14.277 Z M43.802,13.276 C44.236,13.735 44.453,14.409 44.453,15.298 C44.453,16.235 44.241,16.949 43.817,17.441 C43.392,17.933 42.846,18.178 42.177,18.178 C41.752,18.178 41.398,18.072 41.116,17.861 C40.962,17.744 40.811,17.573 40.664,17.348 L40.664,20.122 L39.287,20.122 L39.287,12.705 L40.62,12.705 L40.62,13.491 C40.771,13.26 40.931,13.077 41.101,12.944 C41.413,12.706 41.783,12.588 42.212,12.588 C42.838,12.588 43.367,12.817 43.802,13.276 L43.802,13.276 Z" id="Fill-9" fill="#FFFFFE"></path>
        <path d="M48.76,16.606 C48.978,16.318 49.087,15.906 49.087,15.373 C49.087,14.84 48.978,14.43 48.76,14.142 C48.541,13.855 48.229,13.711 47.822,13.711 C47.415,13.711 47.102,13.855 46.882,14.142 C46.662,14.43 46.552,14.84 46.552,15.373 C46.552,15.906 46.662,16.318 46.882,16.606 C47.102,16.896 47.415,17.041 47.822,17.041 C48.229,17.041 48.541,16.896 48.76,16.606 Z M49.873,17.376 C49.424,17.93 48.742,18.208 47.827,18.208 C46.912,18.208 46.23,17.93 45.781,17.376 C45.332,16.821 45.107,16.154 45.107,15.373 C45.107,14.606 45.332,13.941 45.781,13.378 C46.23,12.815 46.912,12.534 47.827,12.534 C48.742,12.534 49.424,12.815 49.873,13.378 C50.322,13.941 50.547,14.606 50.547,15.373 C50.547,16.154 50.322,16.821 49.873,17.376 L49.873,17.376 Z" id="Fill-10" fill="#FFFFFE"></path>
        <path d="M54.499,12.58 C54.517,12.582 54.557,12.584 54.619,12.588 L54.619,14.013 C54.531,14.004 54.453,13.997 54.385,13.994 C54.316,13.99 54.261,13.989 54.219,13.989 C53.658,13.989 53.282,14.171 53.091,14.536 C52.983,14.741 52.929,15.057 52.929,15.483 L52.929,18.027 L51.528,18.027 L51.528,12.705 L52.856,12.705 L52.856,13.632 C53.071,13.277 53.258,13.035 53.418,12.905 C53.678,12.687 54.017,12.578 54.433,12.578 C54.459,12.578 54.481,12.579 54.499,12.58" id="Fill-11" fill="#FFFFFE"></path>
        <path d="M54.887,13.745 L54.887,12.754 L55.63,12.754 L55.63,11.269 L57.007,11.269 L57.007,12.754 L57.871,12.754 L57.871,13.745 L57.007,13.745 L57.007,16.557 C57.007,16.775 57.034,16.911 57.09,16.965 C57.145,17.019 57.314,17.046 57.597,17.046 C57.64,17.046 57.684,17.045 57.732,17.043 C57.779,17.042 57.825,17.039 57.871,17.036 L57.871,18.076 L57.212,18.1 C56.554,18.123 56.105,18.009 55.864,17.758 C55.708,17.599 55.63,17.353 55.63,17.021 L55.63,13.745 L54.887,13.745" id="Fill-12" fill="#FFFFFE"></path>
        <path d="M60.152,14.015 C59.954,14.217 59.831,14.492 59.781,14.839 L62.177,14.839 C62.152,14.469 62.029,14.189 61.806,13.998 C61.585,13.806 61.31,13.711 60.982,13.711 C60.624,13.711 60.347,13.812 60.152,14.015 Z M62.232,12.813 C62.605,12.979 62.911,13.241 63.152,13.6 C63.37,13.916 63.511,14.283 63.576,14.7 C63.615,14.945 63.628,15.297 63.622,15.756 L59.745,15.756 C59.767,16.29 59.952,16.665 60.302,16.88 C60.515,17.013 60.771,17.08 61.07,17.08 C61.386,17.08 61.644,16.998 61.843,16.836 C61.95,16.748 62.046,16.626 62.128,16.469 L63.55,16.469 C63.513,16.785 63.341,17.106 63.034,17.431 C62.558,17.949 61.89,18.208 61.031,18.208 C60.324,18.208 59.698,17.989 59.157,17.553 C58.615,17.116 58.344,16.406 58.344,15.422 C58.344,14.5 58.589,13.793 59.077,13.301 C59.566,12.809 60.2,12.563 60.982,12.563 C61.445,12.563 61.861,12.646 62.232,12.813 L62.232,12.813 Z" id="Fill-13" fill="#FFFFFE"></path>
        <path d="M67.491,16.582 C67.696,16.289 67.798,15.909 67.798,15.444 C67.798,14.793 67.634,14.327 67.305,14.048 C67.103,13.878 66.868,13.794 66.602,13.794 C66.195,13.794 65.896,13.947 65.706,14.255 C65.515,14.563 65.42,14.944 65.42,15.4 C65.42,15.892 65.517,16.285 65.71,16.579 C65.905,16.874 66.199,17.021 66.592,17.021 C66.986,17.021 67.285,16.875 67.491,16.582 Z M67.149,12.79 C67.4,12.932 67.603,13.128 67.759,13.379 L67.759,10.84 L69.17,10.84 L69.17,18.027 L67.818,18.027 L67.818,17.29 C67.619,17.606 67.393,17.835 67.139,17.978 C66.885,18.121 66.57,18.193 66.192,18.193 C65.57,18.193 65.046,17.942 64.622,17.439 C64.197,16.936 63.985,16.29 63.985,15.502 C63.985,14.594 64.194,13.88 64.613,13.359 C65.031,12.838 65.589,12.578 66.289,12.578 C66.612,12.578 66.898,12.649 67.149,12.79 L67.149,12.79 Z" id="Fill-14" fill="#FFFFFE"></path>
        <path d="M76.594,16.587 C76.794,16.297 76.895,15.916 76.895,15.444 C76.895,15.067 76.846,14.754 76.747,14.506 C76.56,14.038 76.215,13.803 75.713,13.803 C75.204,13.803 74.855,14.033 74.664,14.492 C74.566,14.736 74.517,15.052 74.517,15.439 C74.517,15.895 74.618,16.273 74.823,16.572 C75.026,16.871 75.336,17.021 75.752,17.021 C76.114,17.021 76.394,16.876 76.594,16.587 Z M77.758,13.344 C78.156,13.849 78.355,14.5 78.355,15.298 C78.355,16.124 78.158,16.81 77.766,17.353 C77.373,17.897 76.825,18.169 76.121,18.169 C75.68,18.169 75.325,18.081 75.057,17.905 C74.897,17.801 74.723,17.618 74.536,17.358 L74.536,18.027 L73.164,18.027 L73.164,10.84 L74.556,10.84 L74.556,13.398 C74.733,13.151 74.928,12.962 75.141,12.832 C75.393,12.669 75.714,12.588 76.104,12.588 C76.808,12.588 77.36,12.84 77.758,13.344 L77.758,13.344 Z" id="Fill-15" fill="#FFFFFE"></path>
        <path d="M79.531,19.048 L79.706,19.057 C79.843,19.064 79.973,19.059 80.097,19.043 C80.221,19.027 80.324,18.989 80.41,18.93 C80.491,18.875 80.567,18.759 80.636,18.584 C80.706,18.408 80.737,18.3 80.727,18.261 L78.771,12.705 L80.32,12.705 L81.482,16.631 L82.579,12.705 L84.06,12.705 L82.235,17.939 C81.882,18.948 81.603,19.574 81.398,19.817 C81.193,20.059 80.781,20.18 80.166,20.18 C80.042,20.18 79.943,20.179 79.868,20.178 C79.793,20.176 79.68,20.171 79.531,20.161 L79.531,19.048" id="Fill-16" fill="#FFFFFE"></path>
        <path d="M34.386,37.767 C34.286,37.867 34.186,37.867 34.086,37.867 C33.886,37.867 33.686,37.767 33.586,37.567 C33.486,37.467 33.386,37.367 33.186,37.367 C32.986,37.367 32.886,37.467 32.786,37.567 C32.586,37.867 32.186,37.967 31.886,37.767 C31.586,37.567 31.486,37.167 31.686,36.867 C31.986,36.367 32.486,36.167 33.086,36.167 C33.686,36.167 34.186,36.467 34.486,36.867 C34.686,37.167 34.586,37.567 34.386,37.767 Z M31.058,48.205 C29.379,48.205 28.017,46.844 28.017,45.164 C28.017,43.484 29.379,42.123 31.058,42.123 C32.738,42.123 34.1,43.484 34.1,45.164 C34.1,46.844 32.738,48.205 31.058,48.205 Z M27.786,37.767 C27.486,37.567 27.386,37.167 27.586,36.867 C27.886,36.367 28.386,36.167 28.986,36.167 C29.586,36.167 30.086,36.467 30.386,36.867 C30.586,37.167 30.486,37.567 30.186,37.767 C30.086,37.867 29.986,37.867 29.886,37.867 C29.686,37.867 29.486,37.767 29.386,37.567 C29.286,37.467 29.186,37.367 28.986,37.367 C28.786,37.367 28.686,37.467 28.586,37.567 C28.386,37.867 28.086,37.967 27.786,37.767 Z M19.986,24.467 C20.386,24.467 20.78,24.767 20.786,25.267 C20.853,30.327 20.923,32.373 21.586,33.967 C22.01,34.985 22.205,35.347 23.725,36.507 C24.094,32.747 27.23,29.767 30.986,29.767 C31.986,29.767 32.786,29.867 33.686,30.267 C33.786,31.967 34.086,33.367 34.386,34.167 C34.886,35.667 36.01,37.629 38.086,38.167 C38.289,38.22 38.289,38.222 38.486,38.267 C38.586,39.567 38.986,40.667 39.386,41.667 C39.786,42.967 40.186,44.067 40.186,45.567 C40.186,49.014 38.171,52.039 35.297,53.475 C35.126,53.925 34.862,54.704 34.794,55.744 C34.779,56.568 34.922,57.874 35.407,59.297 C35.572,59.781 35.414,60.219 34.829,60.353 C34.44,60.443 34.034,60.252 33.893,59.851 C33.289,58.143 33.055,56.657 33.198,55.495 C33.258,55.007 33.328,54.564 33.412,54.157 C32.822,54.291 32.212,54.367 31.586,54.367 L31.586,54.367 L30.386,54.367 C29.642,54.367 28.922,54.257 28.231,54.069 C28.214,54.101 28.207,54.136 28.186,54.167 C27.919,54.567 27.486,55.267 27.186,56.267 C26.986,57.067 26.833,58.372 26.986,59.867 C27.038,60.375 26.786,60.767 26.186,60.767 C25.786,60.767 25.434,60.49 25.386,60.067 C25.181,58.268 25.286,56.767 25.686,55.667 C26.012,54.77 26.332,54.019 26.717,53.496 C23.821,52.068 21.786,49.03 21.786,45.567 C21.786,44.167 22.286,43.067 22.686,41.767 C23.072,40.686 23.452,39.658 23.608,38.419 C21.396,37.146 20.567,35.954 19.986,34.467 C19.422,33.021 19.286,29.967 19.186,25.267 C19.186,24.867 19.486,24.467 19.986,24.467 Z M35.386,31.267 C36.986,32.467 38.086,34.267 38.286,36.367 C36.986,35.567 36.248,34.838 35.786,33.567 C35.612,33.088 35.486,32.267 35.386,31.267 Z M34.286,24.167 C34.686,24.167 35.086,24.567 35.086,24.967 C35.186,27.667 35.286,29.767 35.386,31.267 C34.886,30.867 34.286,30.467 33.686,30.267 C33.586,28.867 33.486,27.067 33.486,24.967 C33.486,24.567 33.886,24.167 34.286,24.167 Z" id="Combined-Shape" fill="#4DE1B4"></path>
    </g>
</svg>