<?xml version="1.0" encoding="UTF-8"?>
<svg width="240px" height="142px" viewBox="0 0 240 142" version="1.1" xmlns="http://www.w3.org/2000/svg" xmlns:xlink="http://www.w3.org/1999/xlink">
    <title>cado_labs_promo_logo_white</title>
    <g id="Logotypes" stroke="none" stroke-width="1" fill="none" fill-rule="evenodd">
        <g id="cado_labs_promo_logo_white" transform="translate(0.000000, 3.000000)">
            <g id="Group-5" transform="translate(0.000000, 0.000000)">
                <path d="M29.6386483,86.69541 C35.1745146,86.69541 39.2951028,85.5403 42.000413,83.230119 C44.7057232,80.919938 46.1930176,77.2104565 46.4622961,72.1016742 C46.5546649,71.3164326 46.3981076,70.7047293 45.9926242,70.2665645 C45.5871408,69.8283996 44.9930058,69.6093172 44.2102193,69.6093172 C42.7072692,69.6093172 41.8798639,70.4102637 41.7280033,72.0121567 C41.5197821,75.7577594 40.4974629,78.3490569 38.6610457,79.7860491 C36.8246285,81.2230413 33.8171627,81.9391817 29.6386483,81.9344703 L18.8033174,81.9344703 C15.3136551,81.9344703 12.5465047,81.4813858 10.5018664,80.575217 C8.51157916,79.7233483 6.92699724,78.1321081 6.07990533,76.1346754 C5.17813526,74.0773422 4.72725023,71.2975868 4.72725023,67.795409 L4.72725023,67.795409 L4.72725023,47.1757483 C4.72725023,43.6704295 5.17109018,40.8828217 6.05877009,38.8129246 C6.88474,36.8061741 8.46969575,35.2094709 10.466641,34.3723831 C12.5128449,33.4787781 15.2643395,33.0327608 18.7211248,33.0343313 L29.6386483,33.0343313 C33.8187283,33.0343313 36.8261941,33.7520422 38.6610457,35.1874639 C40.4958973,36.6228857 41.5182165,39.2141831 41.7280033,42.9613563 C41.8845606,44.5616788 42.7119659,45.3618401 44.2102193,45.3618401 C44.9930058,45.3618401 45.5871408,45.1506101 45.9926242,44.7281501 C46.3981076,44.30569 46.5546649,43.6861344 46.4622961,42.869483 C46.1930176,37.7622713 44.7057232,34.053575 42.000413,31.743394 C39.2951028,29.433213 35.1745146,28.2773373 29.6386483,28.2757668 L18.7211248,28.2757668 C12.2255623,28.2757668 7.48109319,29.767726 4.48771755,32.7516443 C1.49434191,35.7355626 -0.0015631198,40.539671 1.22565609e-06,47.1639697 L1.22565609e-06,47.1639697 L1.22565609e-06,67.8001204 C1.22565609e-06,74.3568883 1.50373535,79.1468624 4.51120115,82.1700428 C7.51866694,85.1932231 12.2827057,86.7016724 18.8033174,86.69541 L29.6292549,86.69541 L29.6386483,86.69541 Z M155.686847,86.6953904 C163.174983,86.6953904 168.626308,84.9733555 172.040823,81.5292856 C175.455338,78.0852157 177.161812,72.6010879 177.160248,65.0769024 L177.160248,65.0769024 L177.160248,49.8966106 C177.160248,42.3724251 175.453772,36.8882973 172.040823,33.4442274 C168.627874,30.0001575 163.176549,28.2781226 155.686847,28.2781226 L133.943386,28.2781226 C132.349633,28.2781226 131.552756,29.0790691 131.552756,30.680962 L131.552756,30.680962 L131.552756,84.2901952 C131.552756,85.8889473 132.349633,86.6891085 133.943386,86.690679 L155.686847,86.690679 L155.686847,86.6953904 Z M155.686847,81.936826 L136.289397,81.936826 L136.289397,33.0343313 L155.686847,33.0343313 C159.777689,33.0343313 163.048172,33.5840004 165.498293,34.6833388 C167.882923,35.7197797 169.780106,37.6347178 170.798541,40.0331902 C171.883483,42.495708 172.425171,45.7811591 172.423609,49.8895435 L172.423609,49.8895435 L172.423609,65.0721909 C172.423609,69.2104144 171.881917,72.5084294 170.798541,74.9662358 C169.783108,77.3612172 167.883985,79.2696729 165.498293,80.29253 C163.04504,81.3871568 159.774558,81.9344703 155.686847,81.9344703 L155.686847,81.936826 Z M221.23191,86.6953904 C227.76035,86.6953904 232.520475,85.1845855 235.512285,82.1629756 C238.504095,79.1413657 240,74.3513916 240,67.7930533 L240,67.7930533 L240,47.1757483 C240,40.6189805 238.504095,35.8290063 235.512285,32.805826 C232.520475,29.7826456 227.76035,28.2726259 221.23191,28.2757668 L210.316735,28.2757668 C203.849353,28.214518 199.111929,29.6876313 196.104463,32.6951069 C193.096998,35.7025824 191.593265,40.5145433 191.593265,47.1309895 L191.593265,47.1309895 L191.593265,67.8001204 C191.593265,74.3568883 193.096998,79.1468624 196.104463,82.1700428 C199.111929,85.1932231 203.879099,86.7040281 210.405973,86.7024588 L221.23191,86.7024588 L221.23191,86.6953904 Z M221.23191,81.936826 L210.405973,81.936826 C206.916311,81.936826 204.14916,81.4837416 202.104522,80.5775727 C200.114423,79.7262383 198.530411,78.1347256 197.684909,76.1370311 C196.787836,74.0812684 196.339299,71.3022982 196.339299,67.8001204 L196.339299,67.8001204 L196.339299,47.1309895 C196.339299,43.6256708 196.790967,40.8380629 197.694303,38.7681659 C198.525796,36.7683609 200.104579,35.1744796 202.09278,34.3276243 C204.128025,33.4355898 206.872475,33.0044921 210.326129,33.0343313 L221.23191,33.0343313 C224.691827,33.0343313 227.444104,33.4952681 229.488743,34.4171418 C231.480133,35.2854068 233.063086,36.8876601 233.910704,38.8930193 C234.812474,40.9472115 235.263359,43.7120473 235.263359,47.1875269 L235.263359,47.1875269 L235.263359,67.8001204 C235.263359,71.3038687 234.812474,74.0836242 233.910704,76.1393868 C233.063612,78.1368196 231.47903,79.7280597 229.488743,80.5799284 C227.44567,81.4829563 224.693392,81.9344703 221.23191,81.9344703 L221.23191,81.936826 Z" id="Shape" fill="#000000" fill-rule="nonzero"></path>
                <g id="Group-2" transform="translate(53.124592, 0.000000)">
                    <path d="M37.0688555,88.3184849 L33.2433778,88.3184849 C19.2588967,88.2972834 7.92336512,77.0816768 7.9069266,63.2370812 C7.9069266,54.9920438 13.6322272,48.7258153 13.8600181,37.7811171 C13.8600181,26.1603258 23.375571,16.7421374 35.1150203,16.7421374 C46.8544697,16.7421374 56.3700226,26.1650373 56.3700226,37.7811171 C56.6753094,48.9331191 62.3348559,54.7918071 62.3231323,63.2370812 C62.3019788,77.0510524 51.0157628,88.2548804 37.059462,88.3184849 L37.0688555,88.3184849 Z" id="Path" stroke="#000000" stroke-width="4.6967191" fill="#4DE1B4" fill-rule="nonzero"></path>
                    <path d="M35.1737293,71.6187506 C40.361582,71.6187506 44.5671675,67.3999746 44.5671675,62.1958507 C44.5671675,56.9917268 40.361582,52.7729508 35.1737293,52.7729508 C29.9858767,52.7729508 25.7802911,56.9917268 25.7802911,62.1958507 C25.7802911,67.3999746 29.9858767,71.6187506 35.1737293,71.6187506 L35.1737293,71.6187506 Z" id="Path" fill="#000000" fill-rule="nonzero"></path>
                    <path d="M0,0.947001439 C0.284934292,15.0358073 1.14599946,24.1556039 2.5831955,28.3063913 C4.02039155,32.4571787 7.55467267,36.1352506 13.1860389,39.340607 M41.7538328,0 C42.0356359,14.0888058 42.8967011,23.2086024 44.3370283,27.3593898 C45.7773555,31.5101772 49.3108538,35.1882492 54.9375233,38.3936056" id="Shape" stroke="#000000" stroke-width="4.6967191" stroke-linecap="round"></path>
                    <path d="M46.6055436,86.433905 C45.6755932,88.2289674 44.9937862,90.7833585 44.5601224,94.0970783 C44.1264587,97.4107981 44.7033724,101.528605 46.2908634,106.4505" id="Path" stroke="#000000" stroke-width="4.6967191" stroke-linecap="round"></path>
                    <path d="M24.2843861,88.1677185 C23.0021818,89.728779 21.806084,92.0845039 20.6960927,95.2348935 C19.5861014,98.385283 19.2972532,102.533715 19.829548,107.680188" id="Path" stroke="#000000" stroke-width="4.6967191" stroke-linecap="round"></path>
                    <path d="M25.7802911,37.696311 C26.4065203,36.754021 27.3458642,36.282876 28.5983226,36.282876 C29.850781,36.282876 30.7901248,36.754021 31.416354,37.696311 M38.9311046,37.696311 C39.5573338,36.754021 40.4966776,36.282876 41.7491361,36.282876 C43.0015945,36.282876 43.9409383,36.754021 44.5671675,37.696311" id="Shape" stroke="#000000" stroke-width="1.87868764" stroke-linecap="round"></path>
                </g>
            </g>
            <path d="M44.5765634,117.319815 C45.1620877,117.319815 45.4548499,117.616636 45.4548499,118.210279 L45.4548499,118.210279 L45.4548499,137.213912 L55.8181606,137.213912 C56.3606316,137.239825 56.630693,137.531935 56.630693,138.085531 C56.630693,138.679173 56.3324513,138.975995 55.735968,138.975995 L44.4920225,138.975995 C43.9503342,138.949297 43.6794901,138.65326 43.6794901,138.087886 L43.6794901,138.087886 L43.6794901,118.127829 C43.705322,117.590723 44.0035637,117.319815 44.5742151,117.319815 L44.5765634,117.319815 Z M70.4507889,125.253871 C71.9894351,125.268177 73.226572,126.528461 73.2171576,128.071969 C73.2076352,129.615478 71.9551307,130.860394 70.4164259,130.855691 C68.877721,130.850962 67.6328233,129.598392 67.6327575,128.054854 C67.6405211,126.501038 68.9018252,125.247376 70.4507889,125.253871 L70.4507889,125.253871 Z M118.826996,125.253871 C120.365642,125.268177 121.602779,126.528461 121.593364,128.071969 C121.583842,129.615478 120.331337,130.860394 118.792633,130.855691 C117.253928,130.850962 116.00903,129.598392 116.008964,128.054854 C116.016728,126.501038 117.278032,125.247376 118.826996,125.253871 Z M168.142546,125.253871 C169.681192,125.268177 170.918329,126.528461 170.908915,128.071969 C170.899392,129.615478 169.646888,130.860394 168.108183,130.855691 C166.569478,130.850962 165.324581,129.598392 165.324515,128.054854 C165.332278,126.501038 166.593582,125.247376 168.142546,125.253871 L168.142546,125.253871 Z M102.689069,138.424755 C102.903552,138.96186 103.287118,139.118909 103.839765,138.8959 C104.379888,138.660328 104.544273,138.269277 104.309437,137.718038 L104.309437,137.718038 L95.923445,118.010042 C95.7763174,117.593624 95.3822369,117.316524 94.9418307,117.319815 L94.8408512,117.319815 C94.3907934,117.296821 93.9814462,117.579915 93.8427984,118.010042 L93.8427984,118.010042 L85.4591548,137.718038 C85.2454541,138.266922 85.4098392,138.660328 85.9499619,138.8959 C86.4900846,139.131473 86.8893058,138.964216 87.1241417,138.424755 L87.1241417,138.424755 L89.3715218,133.131441 L100.446385,133.131441 L102.696114,138.424755 L102.689069,138.424755 Z M99.6972587,131.35758 L90.0924682,131.35758 L94.8901667,120.108993 L99.692562,131.367003 L99.6972587,131.35758 Z M145.668745,138.968928 C147.597531,138.968928 149.05508,138.478937 150.041391,137.498955 C151.027702,136.518974 151.520857,135.076485 151.520857,133.171488 L151.520857,133.171488 L151.520857,132.113768 C151.520857,129.4251 150.534546,127.677938 148.561924,126.87228 C149.69853,126.145146 150.267616,124.901323 150.269182,123.140811 L150.269182,123.140811 L150.269182,122.233857 C150.269182,120.620971 149.843346,119.397564 148.991674,118.563638 C148.140002,117.729711 146.887544,117.311963 145.234299,117.310392 L136.409164,117.310392 C135.809549,117.310392 135.510525,117.607214 135.512084,118.200856 L135.512084,118.200856 L135.512084,138.078464 C135.512084,138.672106 135.811115,138.968928 136.409164,138.968928 L145.673442,138.968928 L145.668745,138.968928 Z M145.483225,126.351665 L137.282753,126.351665 L137.282753,119.084253 L145.229602,119.084253 C146.380298,119.084253 147.211618,119.330819 147.72356,119.823951 C148.235502,120.317082 148.492256,121.123526 148.493822,122.24328 L148.493822,122.24328 L148.493822,123.159657 C148.493822,124.258996 148.24881,125.06858 147.758785,125.58841 C147.268761,126.10824 146.510241,126.36894 145.483225,126.37051 L145.483225,126.351665 Z M145.668745,137.20449 L137.282753,137.20449 L137.282753,128.12317 L145.668745,128.12317 C147.113769,128.12317 148.154092,128.437266 148.789715,129.06546 C149.425338,129.693653 149.743932,130.714467 149.745497,132.127902 L149.745497,132.127902 L149.745497,133.185623 C149.745497,134.599058 149.423772,135.624583 148.780322,136.2622 C148.136871,136.899816 147.099679,137.218624 145.668745,137.218624 L145.668745,137.20449 Z M194.026165,138.943015 C196.122467,138.943015 197.655946,138.464017 198.626601,137.506022 C199.597257,136.548028 200.081802,135.033296 200.08024,132.961829 C200.08024,130.888791 199.595691,129.367778 198.626601,128.39879 C197.657512,127.429801 196.124033,126.945307 194.026165,126.945307 L189.3952,126.945307 C187.90634,126.945307 186.871496,126.657124 186.290669,126.080756 C185.709841,125.504389 185.42021,124.483575 185.421776,123.018314 C185.421776,121.549912 185.709058,120.529098 186.283624,119.955871 C186.858189,119.382645 187.883639,119.093676 189.359975,119.088965 L194.094268,119.088965 C195.492324,119.088965 196.484115,119.346524 197.069639,119.861642 C197.655163,120.376761 197.968278,121.279004 198.008983,122.56837 C198.018209,122.807126 198.114279,123.034227 198.279044,123.206772 C198.446846,123.366955 198.672269,123.451966 198.903708,123.442344 C199.149326,123.457453 199.390632,123.372518 199.57299,123.206772 C199.738396,123.035518 199.816304,122.797589 199.784343,122.561303 C199.717023,120.756818 199.223868,119.434471 198.304876,118.594262 C197.385885,117.754054 195.976869,117.333949 194.077829,117.333949 L189.343536,117.333949 C187.370914,117.333949 185.925107,117.793316 185.006116,118.712049 C184.087125,119.630781 183.637805,121.065418 183.658158,123.015958 C183.658158,124.975921 184.120002,126.415269 185.04369,127.334002 C185.967378,128.252735 187.421795,128.712101 189.406942,128.712101 L194.037907,128.712101 C195.639488,128.712101 196.752611,129.026198 197.377274,129.654391 C198.001938,130.282584 198.315052,131.38899 198.316618,132.973608 C198.316618,134.544091 198.003503,135.638718 197.377274,136.257488 C196.751045,136.876259 195.637923,137.190355 194.037907,137.199778 L189.169758,137.199778 C187.635496,137.199778 186.552902,136.919447 185.921976,136.358784 C185.29105,135.798122 184.952887,134.812643 184.907485,133.402349 C184.898694,133.163496 184.802561,132.936247 184.637424,132.763948 C184.464866,132.600722 184.233155,132.515579 183.996321,132.528375 C183.756019,132.51589 183.52079,132.60077 183.343478,132.763948 C183.17465,132.935129 183.08886,133.171792 183.108642,133.411772 C183.175961,135.326192 183.697297,136.729418 184.672649,137.621453 C185.648001,138.513487 187.144689,138.958719 189.162712,138.957153 L194.030862,138.957153 L194.026165,138.943015 Z" id="Shape" fill="#000000" fill-rule="nonzero"></path>
        </g>
    </g>
</svg>