<svg id="Слой_1" data-name="Слой 1" xmlns="http://www.w3.org/2000/svg" viewBox="0 0 1971.63 1654.36"><defs><style>.cls-1{fill:#4de1b4;}.cls-1,.cls-2,.cls-3,.cls-4{stroke:#000;stroke-miterlimit:10;}.cls-1,.cls-2{stroke-width:20px;}.cls-2,.cls-3,.cls-4{fill:none;stroke-linecap:round;}.cls-3{stroke-width:20px;}.cls-4{stroke-width:8px;}</style></defs><path d="M601.14,1126.6q35.36,0,52.64-14.72t19-47.23q.59-5-2-7.79t-7.59-2.79q-9.6,0-10.57,10.2-1.33,23.85-13.06,33t-38.42,9.14H555q-22.29,0-35.35-5.77a35.67,35.67,0,0,1-18.83-18.86q-5.76-13.08-5.76-35.4h0V958.84q0-22.32,5.67-35.5a34.81,34.81,0,0,1,18.73-18.85q13.07-5.68,35.15-5.68h46.49q26.7,0,38.42,9.14t13.06,33q1,10.2,10.57,10.2,5,0,7.59-2.69t2-7.89q-1.72-32.52-19-47.23t-52.64-14.72H554.65q-41.49,0-60.61,19t-19.11,61.18h0v87.53q0,41.76,19.21,61T555,1126.6h46.1Zm536.75,0q47.83,0,69.64-21.93t21.8-69.84h0V970.38q0-47.91-21.8-69.84t-69.64-21.93H1045.3q-10.18,0-10.18,10.2h0V1116.4q0,10.2,10.18,10.2h92.59Zm0-20.2h-82.6V898.81h82.6q26.13,0,41.78,7a43.18,43.18,0,0,1,22.57,22.7q6.93,15.69,6.92,41.85h0v64.45q0,26.36-6.92,42a42.76,42.76,0,0,1-22.57,22.6q-15.64,6.93-41.78,6.93ZM1417,1126.6q41.7,0,60.81-19.24t19.11-61h0V958.84q0-41.76-19.11-61T1417,878.61h-46.48q-41.31-.39-60.52,18.76t-19.21,61.27h0v87.73q0,41.76,19.21,61t60.9,19.24H1417Zm0-20.2h-46.1q-22.29,0-35.35-5.77a35.62,35.62,0,0,1-18.82-18.86q-5.76-13.08-5.77-35.4h0V958.64q0-22.3,5.77-35.49a35.25,35.25,0,0,1,18.73-18.86q13-5.67,35.06-5.48H1417q22.1,0,35.16,5.87a36.07,36.07,0,0,1,18.83,19q5.76,13.08,5.76,35.21h0v87.53q0,22.32-5.76,35.4a35.67,35.67,0,0,1-18.83,18.86q-13.07,5.77-35.16,5.77Z"/><path d="M763.27,1127a11.69,11.69,0,0,1-6.44-2.27c-2.27-1.51-3.4-3.9-3.4-7.19a19.62,19.62,0,0,1,1.13-6l84.68-227.64a11.21,11.21,0,0,1,10.5-7.29h5.72A10,10,0,0,1,864.8,883l85,228.44a19.37,19.37,0,0,1,1.14,6c0,3.29-1.14,5.68-3.41,7.19a11.66,11.66,0,0,1-6.43,2.27q-6.44,0-10.21-8.7L904,1045.66H800.34l-26.86,72.63Q769.7,1127,763.27,1127Zm88.52-217.91L807.91,1026h88.52Z"/><path class="cls-1" d="M1016.09,696.46H996.8c-70.71-.1-128-56.63-128.1-126.4-.05-41.5,28.95-73.14,30.09-128.3,0-58.56,48.11-106,107.46-106s107.46,47.47,107.46,106c1.55,56.21,30.16,85.74,30.1,128.3-.11,69.62-57.17,126.09-127.72,126.4Z"/><path d="M1006.55,612.31a47.49,47.49,0,1,0-47.49-47.49,47.49,47.49,0,0,0,47.49,47.49Z"/><path class="cls-2" d="M828.73,256.13q2.14,106.5,13,137.88t53.59,55.62m144.44-198.25q2.13,106.5,13,137.88t53.6,55.62"/><path class="cls-2" d="M1064.35,687q-7.06,13.57-10.34,38.62t8.74,62.26"/><path class="cls-3" d="M951.49,695.71q-9.72,11.81-18.13,35.63T929,794.05"/><path class="cls-4" d="M959.06,441.34q4.76-7.12,14.25-7.12t14.25,7.12m38,0q4.74-7.12,14.24-7.12t14.25,7.12"/><path d="M664.75,1256.6q3.74,0,3.74,3.78h0v80.67h44.13q3.46.17,3.46,3.7,0,3.78-3.81,3.78H664.39q-3.46-.16-3.46-3.77h0V1260q.16-3.43,3.81-3.43Zm110.18,33.68a11.89,11.89,0,1,1-12,11.89,11.94,11.94,0,0,1,12-11.89Zm206,0a11.89,11.89,0,1,1-12,11.89,11.94,11.94,0,0,1,12-11.89Zm210,0a11.89,11.89,0,1,1-12,11.89,11.94,11.94,0,0,1,12-11.89Zm-278.72,55.91q1.37,3.42,4.9,2t2-5h0l-35.71-83.66a4.39,4.39,0,0,0-4.18-2.93h-.43a4.24,4.24,0,0,0-4.25,2.93h0l-35.71,83.66q-1.37,3.49,2.09,5t5-2h0l9.57-22.47h47.16l9.58,22.47Zm-12.74-30h-40.9L879,1268.44l20.45,47.79Zm195.76,32.31q12.32,0,18.62-6.24t6.3-18.37h0v-4.49q0-17.12-12.6-22.25,7.26-4.65,7.27-15.84h0v-3.85q0-10.27-5.44-15.58t-16-5.32h-37.58q-3.83,0-3.82,3.78h0v84.38q0,3.78,3.82,3.78h39.45Zm-.79-53.57h-34.92v-30.88h33.84q7.35,0,10.62,3.14t3.28,10.27h0v3.85q0,7-3.13,10.31t-9.69,3.31Zm.79,46.08h-35.71v-38.59h35.71q9.23,0,13.29,4t4.07,13h0v4.49q0,9-4.11,13t-13.25,4.07Zm205.92,7.35q13.39,0,19.59-6.1t6.19-19.3q0-13.18-6.19-19.36t-19.59-6.17h-19.72q-9.51,0-13.22-3.67t-3.7-13q0-9.35,3.67-13t13.1-3.67h20.16q8.93,0,12.67,3.28t4,11.48a4.15,4.15,0,0,0,1.15,2.72,3.63,3.63,0,0,0,2.66,1,3.88,3.88,0,0,0,2.85-1,3.33,3.33,0,0,0,.9-2.75q-.43-11.47-6.3-16.83t-18-5.35h-20.16q-12.6,0-18.47,5.85t-5.86,18.33q0,12.48,5.9,18.33t18.58,5.85h19.72q10.23,0,14.22,4t4,14.08q0,10-4,14t-14.22,4h-20.73q-9.8,0-13.83-3.57t-4.32-12.55a4.13,4.13,0,0,0-1.15-2.71,3.69,3.69,0,0,0-2.73-1,3.77,3.77,0,0,0-2.78,1,3.5,3.5,0,0,0-1,2.75q.43,12.2,6.66,17.87t19.12,5.67h20.73Z"/></svg>