<svg id="Слой_1" data-name="Слой 1" xmlns="http://www.w3.org/2000/svg" viewBox="0 0 1971.63 1654.36"><defs><style>.cls-1{fill:#4de1b4;}.cls-1,.cls-2,.cls-3,.cls-4{stroke:#000;stroke-miterlimit:10;}.cls-1,.cls-2{stroke-width:20px;}.cls-2,.cls-3,.cls-4{fill:none;stroke-linecap:round;}.cls-3{stroke-width:20px;}.cls-4{stroke-width:8px;}.cls-5{fill:#000201;}</style></defs><path d="M847.62,866.94q35.34,0,52.63-14.71t19-47.24q.57-5-2-7.79t-7.59-2.79q-9.6,0-10.56,10.2-1.35,23.85-13.06,33t-38.42,9.14H801.51q-22.28,0-35.35-5.77a35.67,35.67,0,0,1-18.82-18.85q-5.76-13.1-5.76-35.4h0V699.18q0-22.32,5.66-35.5A34.84,34.84,0,0,1,766,644.83q13.06-5.69,35.16-5.68h46.49q26.7,0,38.42,9.14t13.06,33q1,10.19,10.56,10.19c3.33,0,5.86-.89,7.59-2.69s2.4-4.43,2-7.89q-1.72-32.5-19-47.23T847.62,619H801.13q-41.5,0-60.61,19T721.4,699.18h0v87.54q0,41.74,19.21,61t60.9,19.24h46.11Zm536.75,0q47.82,0,69.63-21.93t21.81-69.84h0V710.72q0-47.9-21.81-69.84T1384.37,619h-92.6q-10.18,0-10.18,10.2h0v227.6q0,10.18,10.18,10.19h92.6Zm0-20.2h-82.61V639.15h82.61q26.12,0,41.78,7a43.2,43.2,0,0,1,22.57,22.71q6.91,15.68,6.92,41.84h0v64.45q0,26.36-6.92,42a42.81,42.81,0,0,1-22.57,22.61q-15.66,6.91-41.78,6.92Zm279.12,20.2q41.68,0,60.8-19.24t19.11-61h0V699.18q0-41.74-19.11-61T1663.49,619H1617q-41.3-.39-60.51,18.76T1537.28,699h0v87.73q0,41.74,19.21,61t60.9,19.24h46.1Zm0-20.2h-46.1q-22.29,0-35.35-5.77a35.65,35.65,0,0,1-18.83-18.85q-5.76-13.1-5.76-35.4h0V699q0-22.32,5.76-35.5a35.23,35.23,0,0,1,18.73-18.85q13-5.68,35.06-5.49h46.49q22.1,0,35.15,5.87a36,36,0,0,1,18.83,19q5.76,13.08,5.76,35.21h0v87.54q0,22.31-5.76,35.4A35.65,35.65,0,0,1,1698.64,841q-13,5.78-35.15,5.77Z"/><path class="cls-1" d="M468.26,1008.87H449.51C380.77,1008.77,325.05,953.81,325,886c-.05-40.35,28.15-71.11,29.26-124.73,0-56.93,46.77-103.08,104.47-103.08s104.46,46.15,104.46,103.08c1.51,54.64,29.32,83.35,29.26,124.73-.1,67.68-55.57,122.57-124.16,122.88Z"/><path d="M459,927.05a46.17,46.17,0,1,0-46.17-46.16A46.17,46.17,0,0,0,459,927.05Z"/><path class="cls-2" d="M286.11,580.79q2.08,103.55,12.69,134t52.1,54.07M491.32,576.17Q493.39,679.72,504,710.22t52.11,54.07"/><path class="cls-2" d="M515.17,999.64q-6.85,13.2-10,37.54t8.5,60.53"/><path class="cls-3" d="M405.46,1008.14q-9.45,11.48-17.63,34.63t-4.26,61"/><path d="M1009.74,867.33a11.66,11.66,0,0,1-6.43-2.27q-3.4-2.26-3.41-7.18a19.43,19.43,0,0,1,1.14-6.06l84.68-227.63a11.19,11.19,0,0,1,10.49-7.3h5.73a10,10,0,0,1,9.33,6.49l85,228.44a19.39,19.39,0,0,1,1.13,6.06q0,4.92-3.4,7.18a11.69,11.69,0,0,1-6.43,2.27q-6.43,0-10.22-8.7L1150.47,786H1046.82L1020,858.63Q1016.17,867.33,1009.74,867.33Zm88.53-217.9-43.89,116.9h88.53Z"/><path class="cls-4" d="M412.82,760.85q4.62-6.93,13.85-6.93t13.85,6.93m36.93,0q4.62-6.93,13.85-6.93t13.86,6.93"/><path class="cls-5" d="M911.22,991.94c2.5,0,3.74,1.26,3.74,3.78h0v80.67H959.1c2.3.11,3.46,1.35,3.46,3.7,0,2.52-1.28,3.78-3.82,3.78H910.87q-3.47-.16-3.47-3.77h0V995.37c.12-2.28,1.39-3.43,3.81-3.43Zm110.18,33.68a11.89,11.89,0,1,1-12,11.89,11.95,11.95,0,0,1,12-11.89Zm206,0a11.89,11.89,0,1,1-12,11.89,11.95,11.95,0,0,1,12-11.89Zm210,0a11.89,11.89,0,1,1-12,11.89,11.95,11.95,0,0,1,12-11.89Zm-278.72,55.91c.92,2.28,2.55,3,4.9,2s3-2.66,2-5h0l-35.72-83.66a4.38,4.38,0,0,0-4.17-2.93h-.43a4.23,4.23,0,0,0-4.25,2.93h0l-35.71,83.66c-.92,2.33-.22,4,2.08,5s4,.29,5-2h0l9.58-22.47h47.16l9.57,22.47Zm-12.74-30H1105l20.45-47.79,20.45,47.79Zm195.77,32.31q12.32,0,18.61-6.24t6.3-18.37h0v-4.49q0-17.12-12.6-22.25,7.27-4.63,7.27-15.84h0v-3.85q0-10.27-5.43-15.58t-16-5.32h-37.59q-3.81,0-3.81,3.78h0v84.38q0,3.78,3.81,3.78h39.46Zm-.79-53.56H1306V999.43h33.84q7.34,0,10.62,3.14t3.27,10.27h0v3.85q0,7-3.13,10.31t-9.68,3.32Zm.79,46.07H1306v-38.58h35.71q9.21,0,13.28,4t4.07,13h0v4.49q0,9-4.1,13.06t-13.25,4.06Zm205.92,7.35q13.39,0,19.58-6.1t6.19-19.29q0-13.2-6.19-19.37t-19.58-6.17H1527.9q-9.51,0-13.21-3.67t-3.71-13q0-9.35,3.67-13t13.11-3.68h20.16q8.92,0,12.67,3.28t4,11.49a4.2,4.2,0,0,0,1.15,2.71,3.65,3.65,0,0,0,2.67,1,3.86,3.86,0,0,0,2.84-1,3.24,3.24,0,0,0,.9-2.74q-.43-11.49-6.3-16.84t-18-5.35h-20.16q-12.6,0-18.47,5.85t-5.87,18.33q0,12.48,5.9,18.33t18.58,5.85h19.73q10.21,0,14.22,4t4,14.09q0,10-4,13.94t-14.22,4h-20.74q-9.8,0-13.82-3.57t-4.32-12.55a4.2,4.2,0,0,0-1.15-2.71,4.23,4.23,0,0,0-5.51,0,3.43,3.43,0,0,0-1,2.74q.42,12.19,6.66,17.87t19.11,5.67h20.74Z"/></svg>