<svg xmlns="http://www.w3.org/2000/svg" viewBox="0 0 1971.63 1654.36"><defs><style>.cls-1{fill:#fff;}.cls-2,.cls-3,.cls-4,.cls-5{fill:none;stroke:#fff;stroke-miterlimit:10;}.cls-2,.cls-3{stroke-width:20px;}.cls-3,.cls-4,.cls-5{stroke-linecap:round;}.cls-4{stroke-width:20px;}.cls-5{stroke-width:8px;}</style></defs><g id="Слой_5" data-name="Слой 5"><path class="cls-1" d="M601.14,1106.41q35.36,0,52.64-14.72t19-47.23q.59-5-2-7.79t-7.59-2.79q-9.6,0-10.57,10.19-1.33,23.87-13.06,33t-38.42,9.14H555q-22.29,0-35.35-5.78a35.65,35.65,0,0,1-18.83-18.85q-5.76-13.08-5.76-35.4h0V938.64q0-22.32,5.67-35.49a34.83,34.83,0,0,1,18.73-18.86q13.07-5.67,35.15-5.67h46.49q26.7,0,38.42,9.13t13.06,33q1,10.2,10.57,10.2,5,0,7.59-2.7t2-7.89q-1.72-32.5-19-47.23t-52.64-14.72H554.65q-41.49,0-60.61,19.05t-19.11,61.18h0v87.54q0,41.74,19.21,61t60.9,19.24h46.1Zm536.75,0q47.83,0,69.64-21.94t21.8-69.83h0V950.19q0-47.91-21.8-69.84t-69.64-21.94H1045.3q-10.18,0-10.18,10.2h0v227.6q0,10.2,10.18,10.2h92.59Zm0-20.2h-82.6V878.62h82.6q26.13,0,41.78,7a43.18,43.18,0,0,1,22.57,22.7q6.93,15.67,6.92,41.85h0v64.45q0,26.36-6.92,42a42.77,42.77,0,0,1-22.57,22.61q-15.64,6.93-41.78,6.93Zm279.12,20.2q41.7,0,60.81-19.24t19.11-61h0V938.64q0-41.74-19.11-61T1417,858.41h-46.48q-41.31-.37-60.52,18.76t-19.21,61.28h0v87.73q0,41.74,19.21,61t60.9,19.24H1417Zm0-20.2h-46.1q-22.29,0-35.35-5.78a35.6,35.6,0,0,1-18.82-18.85q-5.76-13.08-5.77-35.4h0V938.45q0-22.32,5.77-35.5a35.23,35.23,0,0,1,18.73-18.85q13-5.67,35.06-5.48H1417q22.1,0,35.16,5.86A36.11,36.11,0,0,1,1471,903.43q5.76,13.1,5.76,35.21h0v87.54q0,22.32-5.76,35.4a35.65,35.65,0,0,1-18.83,18.85q-13.07,5.77-35.16,5.78Z"/><path class="cls-1" d="M763.27,1106.8a11.77,11.77,0,0,1-6.44-2.27c-2.27-1.52-3.4-3.91-3.4-7.19a19.62,19.62,0,0,1,1.13-6l84.68-227.64a11.19,11.19,0,0,1,10.5-7.29h5.72a10,10,0,0,1,9.34,6.48l85,228.45a19.37,19.37,0,0,1,1.14,6c0,3.28-1.14,5.67-3.41,7.19a11.74,11.74,0,0,1-6.43,2.27q-6.44,0-10.21-8.7L904,1025.46H800.34l-26.86,72.64Q769.7,1106.8,763.27,1106.8Zm88.52-217.91-43.88,116.9h88.52Z"/><path class="cls-2" d="M1016.09,676.27H996.8c-70.71-.11-128-56.64-128.1-126.4-.05-41.5,28.95-73.14,30.09-128.3,0-58.56,48.11-106,107.46-106s107.46,47.48,107.46,106c1.55,56.2,30.16,85.74,30.1,128.3-.11,69.62-57.17,126.08-127.72,126.4Z"/><path class="cls-1" d="M1006.55,592.11a47.49,47.49,0,1,0-47.49-47.49,47.49,47.49,0,0,0,47.49,47.49Z"/><path class="cls-3" d="M828.73,235.93q2.14,106.5,13,137.88t53.59,55.62m144.44-198.25q2.13,106.51,13,137.89t53.6,55.61"/><path class="cls-3" d="M1064.35,666.78q-7.06,13.56-10.34,38.62t8.74,62.26"/><path class="cls-4" d="M951.49,675.52q-9.72,11.81-18.13,35.62T929,773.86"/><path class="cls-5" d="M959.06,421.15q4.76-7.12,14.25-7.13t14.25,7.13m38,0q4.74-7.12,14.24-7.13t14.25,7.13"/><path class="cls-1" d="M664.75,1236.41q3.74,0,3.74,3.78h0v80.66h44.13q3.46.18,3.46,3.7,0,3.78-3.81,3.78H664.39q-3.46-.18-3.46-3.78h0v-84.72q.16-3.43,3.81-3.43Zm110.18,33.68a11.89,11.89,0,1,1-12,11.89,11.94,11.94,0,0,1,12-11.89Zm206,0a11.89,11.89,0,1,1-12,11.89,11.94,11.94,0,0,1,12-11.89Zm210,0a11.89,11.89,0,1,1-12,11.89,11.94,11.94,0,0,1,12-11.89ZM912.21,1326q1.37,3.42,4.9,2t2-5h0l-35.71-83.66a4.38,4.38,0,0,0-4.18-2.92h-.43a4.23,4.23,0,0,0-4.25,2.92h0L838.84,1323q-1.37,3.49,2.09,5t5-2h0l9.57-22.47h47.16l9.58,22.47Zm-12.74-30h-40.9L879,1248.25,899.47,1296Zm195.76,32.31q12.32,0,18.62-6.24t6.3-18.36h0v-4.5q0-17.12-12.6-22.25,7.26-4.63,7.27-15.83h0v-3.86q0-10.26-5.44-15.58t-16-5.31h-37.58q-3.83,0-3.82,3.78h0v84.37q0,3.78,3.82,3.78h39.45Zm-.79-53.56h-34.92V1243.9h33.84q7.35,0,10.62,3.13t3.28,10.27h0v3.86q0,7-3.13,10.3t-9.69,3.32Zm.79,46.07h-35.71v-38.58h35.71q9.23,0,13.29,4t4.07,13h0v4.5q0,9-4.11,13t-13.25,4.06Zm205.92,7.35q13.39,0,19.59-6.1t6.19-19.29q0-13.2-6.19-19.36t-19.59-6.17h-19.72q-9.51,0-13.22-3.68t-3.7-13q0-9.35,3.67-13t13.1-3.67h20.16q8.93,0,12.67,3.28t4,11.48a4.15,4.15,0,0,0,1.15,2.71,3.6,3.6,0,0,0,2.66,1,3.89,3.89,0,0,0,2.85-1,3.29,3.29,0,0,0,.9-2.74q-.43-11.49-6.3-16.83t-18-5.35h-20.16q-12.6,0-18.47,5.85t-5.86,18.33q0,12.48,5.9,18.33t18.58,5.84h19.72q10.23,0,14.22,4t4,14.09q0,10-4,13.94t-14.22,4h-20.73q-9.8,0-13.83-3.56t-4.32-12.56a4.15,4.15,0,0,0-1.15-2.71,3.73,3.73,0,0,0-2.73-1,3.78,3.78,0,0,0-2.78,1,3.47,3.47,0,0,0-1,2.74q.43,12.21,6.66,17.87t19.12,5.67h20.73Z"/></g></svg>