<svg id="Слой_1" data-name="Слой 1" xmlns="http://www.w3.org/2000/svg" viewBox="0 0 1971.63 1398.79"><defs><style>.cls-1{fill:#221d1d;}.cls-2,.cls-3,.cls-4,.cls-5{fill:none;stroke:#000;stroke-miterlimit:10;}.cls-2,.cls-3{stroke-width:20px;}.cls-3,.cls-4,.cls-5{stroke-linecap:round;}.cls-4{stroke-width:20px;}.cls-5{stroke-width:8px;}</style></defs><path class="cls-1" d="M601.14,772.21q35.36,0,52.64-14.71t19-47.24q.59-5-2-7.79t-7.59-2.79q-9.6,0-10.57,10.2-1.33,23.85-13.06,33T601.14,752H555q-22.29,0-35.35-5.77a35.68,35.68,0,0,1-18.83-18.85q-5.76-13.1-5.76-35.4h0V604.45q0-22.32,5.67-35.5A34.84,34.84,0,0,1,519.5,550.1q13.07-5.69,35.15-5.68h46.49q26.7,0,38.42,9.14t13.06,33q1,10.19,10.57,10.19,5,0,7.59-2.69t2-7.89q-1.72-32.52-19-47.23t-52.64-14.72H554.65q-41.49,0-60.61,19t-19.11,61.18h0V692q0,41.75,19.21,61T555,772.21h46.1Zm536.75,0q47.83,0,69.64-21.93t21.8-69.84h0V616q0-47.91-21.8-69.84t-69.64-21.93H1045.3q-10.18,0-10.18,10.2h0V762q0,10.18,10.18,10.19h92.59Zm0-20.2h-82.6V544.42h82.6q26.13,0,41.78,7a43.2,43.2,0,0,1,22.57,22.71q6.93,15.68,6.92,41.84h0v64.45q0,26.35-6.92,42a42.81,42.81,0,0,1-22.57,22.61Q1164,752,1137.89,752ZM1417,772.21q41.7,0,60.81-19.24t19.11-61h0V604.45q0-41.75-19.11-61T1417,524.22h-46.48q-41.31-.39-60.52,18.76t-19.21,61.28h0V692q0,41.75,19.21,61t60.9,19.24H1417Zm0-20.2h-46.1q-22.29,0-35.35-5.77a35.63,35.63,0,0,1-18.82-18.85Q1311,714.3,1311,692h0V604.26q0-22.32,5.77-35.5a35.2,35.2,0,0,1,18.73-18.85q13-5.68,35.06-5.49H1417q22.1,0,35.16,5.87a36.07,36.07,0,0,1,18.83,19q5.76,13.08,5.76,35.21h0V692q0,22.31-5.76,35.4a35.68,35.68,0,0,1-18.83,18.85Q1439.11,752,1417,752Z"/><path class="cls-2" d="M859,779.1H842.71c-59.55-.09-107.82-47.7-107.89-106.47,0-35,24.38-61.6,25.35-108.06,0-49.33,40.52-89.31,90.51-89.31s90.51,40,90.51,89.31c1.3,47.34,25.4,72.21,25.35,108.06-.09,58.64-48.15,106.2-107.58,106.47Z"/><path d="M850.93,708.21a40,40,0,1,0-40-40,40,40,0,0,0,40,40Z"/><path class="cls-3" d="M701.15,408.21q1.82,89.71,11,116.14t45.15,46.84m121.65-167q1.8,89.71,11,116.14t45.14,46.84"/><path class="cls-3" d="M899.61,771.1q-5.94,11.43-8.71,32.53t7.37,52.44"/><path class="cls-4" d="M804.56,778.46q-8.19,9.94-15.28,30t-3.69,52.83"/><path class="cls-5" d="M810.93,564.21q4-6,12-6t12,6m32,0q4-6,12-6t12,6"/><path d="M664.75,902.21q3.74,0,3.74,3.78h0v80.67h44.13c2.31.11,3.46,1.35,3.46,3.7q0,3.78-3.81,3.78H664.39q-3.46-.17-3.46-3.77h0V905.64c.11-2.28,1.38-3.43,3.81-3.43Zm110.18,33.68a11.89,11.89,0,1,1-12,11.89,11.95,11.95,0,0,1,12-11.89Zm206,0a11.89,11.89,0,1,1-12,11.89,11.95,11.95,0,0,1,12-11.89Zm210,0a11.89,11.89,0,1,1-12,11.89,11.95,11.95,0,0,1,12-11.89ZM912.21,991.8q1.37,3.42,4.9,2c2.3-1,3-2.66,2-5h0l-35.71-83.66a4.4,4.4,0,0,0-4.18-2.93h-.43a4.24,4.24,0,0,0-4.25,2.93h0L838.84,988.8c-.91,2.33-.21,4,2.09,5s4,.29,5-2h0l9.57-22.47h47.16l9.58,22.47Zm-12.74-30h-40.9L879,914.05l20.45,47.79Zm195.76,32.31q12.32,0,18.62-6.24t6.3-18.37h0v-4.49q0-17.12-12.6-22.25,7.26-4.63,7.27-15.84h0v-3.85q0-10.27-5.44-15.58t-16-5.32h-37.58q-3.83,0-3.82,3.78h0v84.38q0,3.78,3.82,3.78h39.45Zm-.79-53.56h-34.92V909.7h33.84q7.35,0,10.62,3.14t3.28,10.27h0V927q0,7-3.13,10.31t-9.69,3.32Zm.79,46.07h-35.71V948.07h35.71q9.23,0,13.29,4t4.07,13h0v4.49q0,9-4.11,13.06t-13.25,4.06ZM1301.15,994q13.39,0,19.59-6.1t6.19-19.29q0-13.2-6.19-19.37t-19.59-6.17h-19.72q-9.51,0-13.22-3.67t-3.7-13q0-9.35,3.67-13t13.1-3.68h20.16q8.93,0,12.67,3.28t4,11.49a4.15,4.15,0,0,0,1.15,2.71,3.64,3.64,0,0,0,2.66,1,3.89,3.89,0,0,0,2.85-1,3.3,3.3,0,0,0,.9-2.74q-.43-11.49-6.3-16.84t-18-5.35h-20.16q-12.6,0-18.47,5.85T1257,926.39q0,12.48,5.9,18.33t18.58,5.85h19.72q10.23,0,14.22,4t4,14.09q0,10-4,13.94t-14.22,4h-20.73q-9.8,0-13.83-3.57t-4.32-12.55a4.13,4.13,0,0,0-1.15-2.71,3.69,3.69,0,0,0-2.73-1,3.82,3.82,0,0,0-2.78,1,3.5,3.5,0,0,0-1,2.75q.43,12.19,6.66,17.87t19.12,5.67h20.73Z"/></svg>