<?xml version="1.0" encoding="UTF-8"?>
<svg width="80px" height="99px" viewBox="0 0 80 99" version="1.1" xmlns="http://www.w3.org/2000/svg" xmlns:xlink="http://www.w3.org/1999/xlink">
    <title>avocado_symbol@1x</title>
    <g id="Logo-Original" stroke="none" stroke-width="1" fill="none" fill-rule="evenodd">
        <g id="Artboard" transform="translate(-245.000000, -557.000000)">
            <g id="cadolabs_horizontal" transform="translate(145.000000, 507.000000)">
                <g id="avocado_symbol" transform="translate(100.000000, 50.000000)">
                    <path d="M40,4.28365385 C46.2699759,4.28365385 51.9677505,6.40109901 56.0842415,9.89423568 C59.9249777,13.1533747 62.3830128,17.6316641 62.3830128,22.6285714 C62.3830128,31.4641451 65.5811929,38.2301256 69.0426816,44.8808177 L69.5386543,45.8303433 C69.7710425,46.2740387 70.004233,46.7175898 70.2367273,47.1619049 L70.7003439,48.0518232 C73.3172123,53.1035172 75.7163462,58.3311466 75.7163462,65.0571429 C75.7163462,73.1782073 71.765811,80.4850682 65.5121582,85.7917393 C58.9827505,91.3324081 49.9516426,94.7163462 40,94.7163462 C30.0483574,94.7163462 21.0172495,91.3324081 14.4878418,85.7917393 C8.23418898,80.4850682 4.28365385,73.1782073 4.28365385,65.0571429 C4.28365385,58.3311466 6.68278775,53.1035172 9.29965614,48.0518232 L9.76327266,47.1619049 C9.99576702,46.7175898 10.2289575,46.2740387 10.4613457,45.8303433 L10.4613457,45.8303433 L10.9573184,44.8808177 C14.4188071,38.2301256 17.6169872,31.4641451 17.6169872,22.6285714 C17.6169872,17.6316641 20.0750223,13.1533747 23.9157585,9.89423568 C28.0322495,6.40109901 33.7300241,4.28365385 40,4.28365385 Z" id="avocado_shape-01" stroke="#22B68A" stroke-width="8.56730769"></path>
                    <circle id="Oval" fill="#000000" cx="40.5" cy="64.5" r="7.5"></circle>
                </g>
            </g>
        </g>
    </g>
</svg>