<?xml version="1.0" encoding="UTF-8"?>
<svg width="240px" height="189px" viewBox="0 0 240 189" version="1.1" xmlns="http://www.w3.org/2000/svg" xmlns:xlink="http://www.w3.org/1999/xlink">
    <title>cadolabs_logo_squared</title>
    <g id="cadolabs_logo_squared" stroke="none" stroke-width="1" fill="none" fill-rule="evenodd">
        <g id="cadolabs_square-03">
            <path d="M31.3892653,87.342 C40.7382378,87.342 47.920985,83.466 53.1655305,76.74 C53.8496017,75.828 54.0776254,75.258 54.0776254,74.574 C54.0776254,73.206 52.823495,72.066 51.3413408,72.066 C50.6572696,72.066 49.9731985,72.294 49.1751154,73.206 C44.7286529,78.792 39.2560836,81.984 31.3892653,81.984 C18.6199369,81.984 8.92892883,71.724 8.92892883,58.614 C8.92892883,45.504 18.7339488,35.358 31.5032771,35.358 C39.2560836,35.358 44.8426648,38.55 49.2891273,44.136 C49.9731985,45.048 50.7712815,45.276 51.4553526,45.276 C52.823495,45.276 54.0776254,44.136 54.0776254,42.768 C54.0776254,42.084 53.9636136,41.514 53.2795424,40.602 C48.1490087,33.876 40.7382378,30 31.5032771,30 C15.5416167,30 3.00031211,42.654 3.00031211,58.614 C3.00031211,74.574 15.5416167,87.342 31.3892653,87.342 Z" id="Path-Copy" fill="#000000" fill-rule="nonzero"></path>
            <path d="M86.4929974,30 C99.3763376,30 107.129144,38.094 107.129144,51.66 L107.129144,51.66 L107.129144,84.492 C107.129144,86.088 105.875014,87.342 104.278848,87.342 C102.682682,87.342 101.314539,86.088 101.314539,84.492 L101.314539,84.492 L101.314539,77.994 C97.3241241,83.808 90.3694007,87.342 81.932523,87.342 C70.6453489,87.342 63.0065543,81.3 63.0065543,72.408 C63.0065543,63.402 70.531337,57.702 82.1605468,57.702 L82.1605468,57.702 L101.314539,57.702 L101.314539,51.432 C101.314539,41.286 95.7279581,35.358 86.1509619,35.358 C80.336357,35.358 75.433847,37.752 70.9873845,42.768 C70.1893014,43.566 69.5052303,43.908 68.5931354,43.908 C67.2249931,43.908 65.9708626,42.768 65.9708626,41.514 C65.9708626,40.716 66.3128982,39.918 67.2249931,38.892 C72.2415149,32.964 78.8542028,30 86.4929974,30 Z M101.314539,62.604 L82.7306061,62.604 C73.837681,62.604 68.935171,66.138 68.935171,72.294 C68.935171,78.336 74.2937284,82.326 82.5025823,82.326 C92.9916735,82.326 101.314539,74.916 101.314539,65.682 L101.314539,65.682 L101.314539,62.604 Z" id="Combined-Shape-Copy-4" fill="#000000" fill-rule="nonzero"></path>
            <path d="M171.031148,0 C172.627314,0 173.881444,1.254 173.881444,2.85 L173.881444,2.85 L173.881444,84.93 C173.881444,86.526 172.627314,87.78 171.031148,87.78 C169.434981,87.78 168.180851,86.526 168.180851,84.93 L168.180851,84.93 L168.180851,75.81 C164.190436,82.992 155.86757,87.78 145.948538,87.78 C130.556937,87.78 118.585692,75.354 118.585692,59.166 C118.585692,42.864 130.442925,30.438 145.948538,30.438 C155.753558,30.438 164.076424,35.226 168.180851,42.294 L168.180851,42.294 L168.180851,2.85 C168.180851,1.254 169.434981,0 171.031148,0 Z M146.518598,35.796 C133.863281,35.796 124.514309,45.714 124.514309,59.052 C124.514309,72.504 133.977293,82.422 146.518598,82.422 C159.51595,82.422 168.180851,73.074 168.180851,59.166 C168.180851,45.144 159.51595,35.796 146.518598,35.796 Z" id="Combined-Shape-Copy-2" fill="#000000" fill-rule="nonzero"></path>
            <path d="M211.497035,30.438 C227.344684,30.438 240,42.978 240,59.052 C240,75.126 227.344684,87.78 211.383023,87.78 C195.535375,87.78 182.99407,75.126 182.99407,59.052 C182.99407,42.864 195.535375,30.438 211.497035,30.438 Z M211.497035,35.796 C198.613695,35.796 188.922687,45.828 188.922687,59.166 C188.922687,72.39 198.613695,82.422 211.383023,82.422 C224.152351,82.422 234.071383,72.276 234.071383,59.166 C234.071383,45.828 224.152351,35.796 211.497035,35.796 Z" id="Combined-Shape-Copy-3" fill="#000000" fill-rule="nonzero"></path>
            <path d="M69.4362231,186.78 C71.146401,186.78 72.2865196,185.526 72.2865196,183.93 L72.2865196,101.85 C72.2865196,100.254 71.0323891,99 69.4362231,99 C67.8400571,99 66.5859266,100.254 66.5859266,101.85 L66.5859266,183.93 C66.5859266,185.526 67.8400571,186.78 69.4362231,186.78 Z" id="Path-Copy-2" fill="#000000" fill-rule="nonzero"></path>
            <path d="M105.045283,129.438 C117.928624,129.438 125.68143,137.532 125.68143,151.098 L125.68143,151.098 L125.68143,183.93 C125.68143,185.526 124.4273,186.78 122.831134,186.78 C121.234967,186.78 119.866825,185.526 119.866825,183.93 L119.866825,183.93 L119.866825,177.432 C115.87641,183.246 108.921687,186.78 100.484809,186.78 C89.1976348,186.78 81.5588402,180.738 81.5588402,171.846 C81.5588402,162.84 89.0836229,157.14 100.712833,157.14 L100.712833,157.14 L119.866825,157.14 L119.866825,150.87 C119.866825,140.724 114.280244,134.796 104.703248,134.796 C98.8886429,134.796 93.9861329,137.19 89.5396704,142.206 C88.7415873,143.004 88.0575162,143.346 87.1454213,143.346 C85.777279,143.346 84.5231485,142.206 84.5231485,140.952 C84.5231485,140.154 84.8651841,139.356 85.777279,138.33 C90.7938008,132.402 97.4064887,129.438 105.045283,129.438 Z M119.866825,162.042 L101.282892,162.042 C92.3899669,162.042 87.4874569,165.576 87.4874569,171.732 C87.4874569,177.774 92.8460143,181.764 101.054868,181.764 C111.543959,181.764 119.866825,174.354 119.866825,165.12 L119.866825,165.12 L119.866825,162.042 Z" id="Combined-Shape-Copy-4" fill="#000000" fill-rule="nonzero"></path>
            <path d="M141.415067,99 C143.011233,99 144.265363,100.254 144.265363,101.85 L144.265363,101.85 L144.265363,141.294 C148.36979,134.226 156.692656,129.438 166.497676,129.438 C182.003289,129.438 193.860522,141.864 193.860522,158.166 C193.860522,174.354 181.889277,186.78 166.497676,186.78 C156.692656,186.78 148.36979,181.992 144.265363,174.924 L144.265363,174.924 L144.265363,183.93 C144.265363,185.526 143.011233,186.78 141.415067,186.78 C139.818901,186.78 138.56477,185.526 138.56477,183.93 L138.56477,183.93 L138.56477,101.85 C138.56477,100.254 139.818901,99 141.415067,99 Z M165.927617,134.796 C152.930265,134.796 144.265363,144.144 144.265363,158.166 C144.265363,172.074 152.930265,181.422 165.927617,181.422 C178.468921,181.422 187.931906,171.504 187.931906,158.052 C187.931906,144.714 178.582933,134.796 165.927617,134.796 Z" id="Combined-Shape-Copy-5" fill="#000000" fill-rule="nonzero"></path>
            <path d="M219.663206,186.78 C229.240203,186.78 238.019116,181.65 238.019116,171.504 C238.019116,163.296 232.204511,159.306 223.767633,155.658 L218.6371,153.378 C212.252436,150.642 208.26202,148.59 208.26202,143.46 C208.26202,137.418 213.620578,134.796 219.435183,134.796 C224.79374,134.796 229.126191,136.962 232.546547,140.61 C233.572653,141.522 234.256725,141.864 235.054808,141.864 C236.42295,141.864 237.563068,140.61 237.563068,139.128 C237.563068,138.558 237.221033,137.76 236.536962,137.076 C232.77457,132.744 227.187989,129.438 219.777218,129.438 C210.542258,129.438 202.219392,134.568 202.219392,143.802 C202.219392,151.668 208.376032,155.316 215.786803,158.508 L220.803325,160.674 C226.959966,163.41 232.090499,165.576 232.090499,171.732 C232.090499,178.23 226.275894,181.422 219.663206,181.422 C213.050519,181.422 207.919985,178.116 203.587534,172.644 C203.017475,171.96 202.219392,171.618 201.421309,171.618 C199.939155,171.618 198.571012,172.986 198.571012,174.468 C198.571012,175.152 198.913048,175.836 199.369095,176.406 C203.701546,182.334 210.770281,186.78 219.663206,186.78 Z" id="Path-Copy-3" fill="#000000" fill-rule="nonzero"></path>
            <g id="a_avocado" transform="translate(0.000000, 129.000000)">
                <path d="M22.5021971,5.61253561 C15.8931823,5.61253561 10.5144852,11.0066477 10.5144852,17.6384932 L10.5144852,21.1965812 C10.5239492,23.1402343 10.1548539,25.0490662 9.4229725,26.8502691 L6.52699368,34.2418487 C5.90868011,35.7771447 5.59321401,37.3662551 5.59005935,38.9806901 C5.59952333,47.4612219 12.489303,54.3748022 20.9532586,54.3874644 L24.0542904,54.3874644 C32.5087819,54.3748022 39.4017163,47.4580563 39.4143349,38.9680279 C39.4143349,37.3092751 39.1051782,35.6948401 38.4868646,34.1722064 L38.4710913,34.1373852 L35.5688031,26.7236467 C34.8716231,24.9825894 34.5056824,23.1244065 34.4899091,21.2219057 L34.4899091,17.6384932 C34.4899091,11.0066477 29.111212,5.61253561 22.5021971,5.61253561 M24.0605997,60 L20.9501039,60 C9.4071992,59.9841722 0.0094639831,50.5508072 0,38.974359 C0.00630932207,36.6318455 0.451116528,34.3431466 1.33126696,32.1620766 L4.23040044,24.770497 C4.69729028,23.6150681 4.92442587,17.6384932 4.92442587,17.6384932 C4.92442587,7.9138968 12.8079238,0 22.5021971,0 C32.1964705,0 40.0799684,7.9138968 40.0799684,17.6384932 C40.0799684,17.6384932 40.3197227,23.5422602 40.7676845,24.6533713 L43.6699727,32.0702754 C44.5627417,34.2671732 45.0138583,36.5938588 45.0045402,38.9806901 C44.988621,50.5508072 35.5908858,59.9841722 24.0605997,60" id="Fill-1" fill="#22B68A"></path>
                <path d="M22.436934,43.7633274 C19.9523872,43.7633274 17.9364658,41.7476157 17.9364658,39.2633274 C17.9364658,36.779039 19.9523872,34.7661 22.436934,34.7661 C24.9214808,34.7661 26.9374022,36.779039 26.9374022,39.2633274 C26.9374022,41.7476157 24.9214808,43.7633274 22.436934,43.7633274" id="Fill-15" fill="#000000"></path>
            </g>
        </g>
    </g>
</svg>