<svg xmlns="http://www.w3.org/2000/svg" viewBox="0 0 1971.63 1654.36"><defs><style>.cls-1{fill:#fff;}.cls-2,.cls-3,.cls-4,.cls-5{fill:none;stroke:#fff;stroke-miterlimit:10;}.cls-2,.cls-3{stroke-width:20px;}.cls-3,.cls-4,.cls-5{stroke-linecap:round;}.cls-4{stroke-width:20px;}.cls-5{stroke-width:8px;}</style></defs><g id="Слой_2" data-name="Слой 2"><path class="cls-1" d="M847.62,779.14q35.34,0,52.63-14.72t19-47.23q.57-5-2-7.8t-7.59-2.79q-9.6,0-10.56,10.2-1.35,23.87-13.06,33t-38.42,9.13H801.51q-22.28,0-35.35-5.77a35.63,35.63,0,0,1-18.82-18.85q-5.76-13.08-5.76-35.4h0V611.37q0-22.32,5.66-35.5A34.84,34.84,0,0,1,766,557q13.06-5.67,35.16-5.68h46.49q26.7,0,38.42,9.14t13.06,33q1,10.2,10.56,10.2,5,0,7.59-2.7t2-7.89q-1.72-32.51-19-47.23t-52.63-14.72H801.13q-41.5,0-60.61,19.05T721.4,611.37h0v87.54q0,41.75,19.21,61t60.9,19.24h46.11Zm536.75,0q47.82,0,69.63-21.94t21.81-69.83h0V622.91q0-47.89-21.81-69.83t-69.63-21.94h-92.6q-10.18,0-10.18,10.2h0v227.6q0,10.2,10.18,10.2h92.6Zm0-20.21h-82.61V551.34h82.61q26.12,0,41.78,7a43.18,43.18,0,0,1,22.57,22.7q6.91,15.67,6.92,41.84h0v64.46q0,26.36-6.92,42A42.77,42.77,0,0,1,1426.15,752q-15.66,6.93-41.78,6.92Zm279.12,20.21q41.68,0,60.8-19.24t19.11-61h0V611.37q0-41.74-19.11-61t-60.8-19.24H1617q-41.3-.37-60.51,18.76t-19.21,61.28h0v87.73q0,41.75,19.21,61t60.9,19.24h46.1Zm0-20.21h-46.1q-22.29,0-35.35-5.77a35.62,35.62,0,0,1-18.83-18.85q-5.76-13.08-5.76-35.4h0V611.18q0-22.32,5.76-35.5a35.27,35.27,0,0,1,18.73-18.85q13-5.69,35.06-5.49h46.49q22.1,0,35.15,5.87a36,36,0,0,1,18.83,18.95q5.76,13.08,5.76,35.21h0v87.54q0,22.32-5.76,35.4a35.62,35.62,0,0,1-18.83,18.85q-13,5.77-35.15,5.77Z"/><path class="cls-1" d="M1009.74,779.53a11.74,11.74,0,0,1-6.43-2.27c-2.27-1.52-3.41-3.91-3.41-7.19A19.37,19.37,0,0,1,1001,764l84.68-227.64a11.19,11.19,0,0,1,10.49-7.3h5.73a10,10,0,0,1,9.33,6.49l85,228.45a19.33,19.33,0,0,1,1.13,6.05c0,3.28-1.13,5.67-3.4,7.19a11.77,11.77,0,0,1-6.43,2.27q-6.43,0-10.22-8.7l-26.86-72.64H1046.82L1020,770.83Q1016.17,779.52,1009.74,779.53Zm88.53-217.91-43.89,116.9h88.53Z"/><path class="cls-2" d="M468.26,921.06H449.51C380.77,921,325.05,866,325,798.18c-.05-40.34,28.15-71.11,29.26-124.73,0-56.93,46.77-103.08,104.47-103.08s104.46,46.15,104.46,103.08c1.51,54.64,29.32,83.35,29.26,124.73-.1,67.68-55.57,122.58-124.16,122.88Z"/><path class="cls-1" d="M459,839.25a46.17,46.17,0,1,0-46.17-46.17A46.17,46.17,0,0,0,459,839.25Z"/><path class="cls-3" d="M286.11,493q2.08,103.54,12.69,134t52.1,54.07M491.32,488.37q2.07,103.53,12.68,134t52.11,54.07"/><path class="cls-3" d="M515.17,911.83q-6.85,13.2-10,37.55t8.5,60.52"/><path class="cls-4" d="M405.46,920.33Q396,931.81,387.83,955t-4.26,61"/><path class="cls-5" d="M412.82,673q4.62-6.93,13.85-6.93T440.52,673m36.93,0q4.62-6.93,13.85-6.93T505.16,673"/><path class="cls-1" d="M911.22,904.14c2.5,0,3.74,1.26,3.74,3.78h0v80.66H959.1c2.3.11,3.46,1.35,3.46,3.7,0,2.52-1.28,3.78-3.82,3.78H910.87q-3.47-.16-3.47-3.77h0V907.56q.18-3.42,3.81-3.42Zm110.18,33.68a11.89,11.89,0,1,1-12,11.88,11.94,11.94,0,0,1,12-11.88Zm206,0a11.89,11.89,0,1,1-12,11.88,11.94,11.94,0,0,1,12-11.88Zm210,0a11.89,11.89,0,1,1-12,11.88,11.94,11.94,0,0,1,12-11.88Zm-278.72,55.9q1.38,3.42,4.9,2c2.3-1,3-2.67,2-5h0l-35.72-83.66a4.36,4.36,0,0,0-4.17-2.92h-.43a4.22,4.22,0,0,0-4.25,2.92h0l-35.71,83.66c-.92,2.33-.22,4,2.08,5s4,.28,5-2h0l9.58-22.47h47.16l9.57,22.47Zm-12.74-30H1105L1125.49,916l20.45,47.78Zm195.77,32.31q12.32,0,18.61-6.24t6.3-18.36h0V967q0-17.12-12.6-22.25,7.27-4.63,7.27-15.83h0V925q0-10.26-5.43-15.58t-16-5.31h-37.59q-3.81,0-3.81,3.78h0v84.37q0,3.78,3.81,3.78h39.46Zm-.79-53.56H1306V911.63h33.84q7.34,0,10.62,3.13t3.27,10.27h0v3.86q0,7-3.13,10.3t-9.68,3.32Zm.79,46.07H1306V950h35.71q9.21,0,13.28,4t4.07,13h0v4.5q0,9-4.1,13t-13.25,4.06Zm205.92,7.35q13.39,0,19.58-6.1t6.19-19.29q0-13.2-6.19-19.37T1547.63,945H1527.9q-9.51,0-13.21-3.67t-3.71-13q0-9.35,3.67-13t13.11-3.67h20.16q8.92,0,12.67,3.28t4,11.48a4.2,4.2,0,0,0,1.15,2.71,3.61,3.61,0,0,0,2.67,1,3.86,3.86,0,0,0,2.84-1,3.24,3.24,0,0,0,.9-2.74q-.43-11.49-6.3-16.83t-18-5.35h-20.16q-12.6,0-18.47,5.84t-5.87,18.34q0,12.48,5.9,18.33t18.58,5.84h19.73q10.21,0,14.22,4t4,14.09q0,10-4,13.94t-14.22,4h-20.74q-9.8,0-13.82-3.56t-4.32-12.56a4.2,4.2,0,0,0-1.15-2.71,4.23,4.23,0,0,0-5.51,0,3.44,3.44,0,0,0-1,2.74q.42,12.2,6.66,17.87t19.11,5.67h20.74Z"/></g></svg>