<svg xmlns="http://www.w3.org/2000/svg" viewBox="0 0 1971.63 1654.36"><defs><style>.cls-1,.cls-2,.cls-3,.cls-4{fill:none;stroke:#000;stroke-miterlimit:10;}.cls-1,.cls-2{stroke-width:20px;}.cls-2,.cls-3,.cls-4{stroke-linecap:round;}.cls-3{stroke-width:20px;}.cls-4{stroke-width:8px;}.cls-5{fill:#000201;}</style></defs><g id="Слой_3" data-name="Слой 3"><path d="M847.62,868q35.34,0,52.63-14.72t19-47.23c.38-3.34-.29-5.93-2-7.79s-4.26-2.79-7.59-2.79q-9.6,0-10.56,10.19-1.35,23.86-13.06,33t-38.42,9.14H801.51q-22.28,0-35.35-5.77a35.68,35.68,0,0,1-18.82-18.86q-5.76-13.08-5.76-35.4h0V700.18q0-22.32,5.66-35.49A34.86,34.86,0,0,1,766,645.83q13.06-5.67,35.16-5.67h46.49q26.7,0,38.42,9.14t13.06,33q1,10.2,10.56,10.2,5,0,7.59-2.7t2-7.88q-1.72-32.52-19-47.24T847.62,620H801.13q-41.5,0-60.61,19T721.4,700.18h0v87.54q0,41.74,19.21,61T801.51,868h46.11Zm536.75,0q47.82,0,69.63-21.93t21.81-69.84h0V711.73q0-47.91-21.81-69.84T1384.37,620h-92.6q-10.18,0-10.18,10.19h0v227.6q0,10.2,10.18,10.2h92.6Zm0-20.2h-82.61V640.16h82.61q26.12,0,41.78,7a43.18,43.18,0,0,1,22.57,22.7q6.91,15.68,6.92,41.85h0v64.45q0,26.36-6.92,42a42.77,42.77,0,0,1-22.57,22.61q-15.66,6.93-41.78,6.93ZM1663.49,868q41.68,0,60.8-19.24t19.11-61h0V700.18q0-41.74-19.11-61T1663.49,620H1617q-41.3-.39-60.51,18.75T1537.28,700h0v87.73q0,41.74,19.21,61t60.9,19.24h46.1Zm0-20.2h-46.1q-22.29,0-35.35-5.77a35.67,35.67,0,0,1-18.83-18.86q-5.76-13.08-5.76-35.4h0V700q0-22.32,5.76-35.5a35.27,35.27,0,0,1,18.73-18.85q13-5.67,35.06-5.48h46.49q22.1,0,35.15,5.86a36.06,36.06,0,0,1,18.83,19q5.76,13.08,5.76,35.2h0v87.54q0,22.32-5.76,35.4A35.67,35.67,0,0,1,1698.64,842q-13,5.76-35.15,5.77Z"/><path class="cls-1" d="M468.26,1009.87H449.51C380.77,1009.77,325.05,954.81,325,887c-.05-40.34,28.15-71.1,29.26-124.73,0-56.93,46.77-103.08,104.47-103.08s104.46,46.15,104.46,103.08c1.51,54.64,29.32,83.35,29.26,124.73-.1,67.68-55.57,122.58-124.16,122.88Z"/><path d="M459,928.06a46.17,46.17,0,1,0-46.17-46.17A46.17,46.17,0,0,0,459,928.06Z"/><path class="cls-2" d="M286.11,581.79q2.08,103.55,12.69,134.05t52.1,54.07M491.32,577.18q2.07,103.55,12.68,134t52.11,54.07"/><path class="cls-2" d="M515.17,1000.64q-6.85,13.2-10,37.55t8.5,60.53"/><path class="cls-3" d="M405.46,1009.14q-9.45,11.48-17.63,34.63t-4.26,61"/><path d="M1009.74,868.34a11.74,11.74,0,0,1-6.43-2.27q-3.4-2.27-3.41-7.19a19.37,19.37,0,0,1,1.14-6l84.68-227.64a11.19,11.19,0,0,1,10.49-7.29h5.73a10,10,0,0,1,9.33,6.48l85,228.45a19.33,19.33,0,0,1,1.13,6q0,4.92-3.4,7.19a11.77,11.77,0,0,1-6.43,2.27q-6.43,0-10.22-8.7L1150.47,787H1046.82L1020,859.64Q1016.17,868.34,1009.74,868.34Zm88.53-217.91-43.89,116.9h88.53Z"/><path class="cls-4" d="M412.82,761.85q4.62-6.93,13.85-6.92t13.85,6.92m36.93,0q4.62-6.93,13.85-6.92t13.86,6.92"/><path class="cls-5" d="M911.22,993c2.5,0,3.74,1.26,3.74,3.78h0v80.67H959.1c2.3.12,3.46,1.35,3.46,3.7,0,2.52-1.28,3.78-3.82,3.78H910.87q-3.47-.18-3.47-3.78h0V996.38q.18-3.43,3.81-3.43Zm110.18,33.68a11.89,11.89,0,1,1-12,11.89,11.94,11.94,0,0,1,12-11.89Zm206,0a11.89,11.89,0,1,1-12,11.89,11.94,11.94,0,0,1,12-11.89Zm210,0a11.89,11.89,0,1,1-12,11.89,11.94,11.94,0,0,1,12-11.89Zm-278.72,55.9q1.38,3.42,4.9,2c2.3-1,3-2.66,2-5h0l-35.72-83.67a4.37,4.37,0,0,0-4.17-2.92h-.43a4.22,4.22,0,0,0-4.25,2.92h0l-35.71,83.67c-.92,2.33-.22,4,2.08,5s4,.28,5-2h0l9.58-22.47h47.16l9.57,22.47Zm-12.74-30H1105l20.45-47.78,20.45,47.78Zm195.77,32.31q12.32,0,18.61-6.24t6.3-18.36h0v-4.5q0-17.12-12.6-22.25,7.27-4.63,7.27-15.83h0v-3.85q0-10.27-5.43-15.59t-16-5.31h-37.59q-3.81,0-3.81,3.78h0v84.37q0,3.78,3.81,3.78h39.46Zm-.79-53.56H1306v-30.88h33.84q7.34,0,10.62,3.14t3.27,10.27h0v3.85q0,7-3.13,10.3t-9.68,3.32Zm.79,46.08H1306v-38.59h35.71q9.21,0,13.28,4t4.07,13h0v4.5q0,9-4.1,13t-13.25,4.07Zm205.92,7.34q13.39,0,19.58-6.1t6.19-19.29q0-13.2-6.19-19.36t-19.58-6.17H1527.9q-9.51,0-13.21-3.68t-3.71-13q0-9.35,3.67-13t13.11-3.67h20.16q8.92,0,12.67,3.28t4,11.48a4.18,4.18,0,0,0,1.15,2.71,3.61,3.61,0,0,0,2.67,1,3.86,3.86,0,0,0,2.84-1,3.26,3.26,0,0,0,.9-2.75q-.43-11.49-6.3-16.83t-18-5.35h-20.16q-12.6,0-18.47,5.85t-5.87,18.33q0,12.48,5.9,18.33t18.58,5.85h19.73q10.21,0,14.22,4t4,14.09q0,10-4,13.94t-14.22,4h-20.74q-9.8,0-13.82-3.56t-4.32-12.56a4.2,4.2,0,0,0-1.15-2.71,4.26,4.26,0,0,0-5.51,0,3.45,3.45,0,0,0-1,2.75q.42,12.19,6.66,17.86t19.11,5.67h20.74Z"/></g></svg>