<svg id="Слой_1" data-name="Слой 1" xmlns="http://www.w3.org/2000/svg" xmlns:xlink="http://www.w3.org/1999/xlink" viewBox="0 0 491.99 671.76"><defs><style>.cls-1,.cls-2,.cls-3,.cls-7,.cls-8,.cls-9{fill:none;}.cls-2{clip-path:url(#clip-path);}.cls-3,.cls-7,.cls-8,.cls-9{stroke:#000;stroke-miterlimit:10;}.cls-3,.cls-7{stroke-width:20px;}.cls-4{clip-path:url(#clip-path-2);}.cls-5{fill:#221c1c;}.cls-6{clip-path:url(#clip-path-3);}.cls-7,.cls-8,.cls-9{stroke-linecap:round;}.cls-8{stroke-width:20px;}.cls-9{stroke-width:8px;}</style><clipPath id="clip-path"><rect class="cls-1" x="-270.37" y="-19.38" width="1336" height="816"/></clipPath><clipPath id="clip-path-2"><path class="cls-2" d="M263.63,396.62a40,40,0,1,0-40-40,40,40,0,0,0,40,40Z"/></clipPath><clipPath id="clip-path-3"><rect class="cls-1" x="-270.25" y="-19.38" width="1335.88" height="816"/></clipPath></defs><path class="cls-3" d="M271.66,467.51H255.41C195.86,467.42,147.58,419.8,147.52,361c0-35,24.38-61.6,25.35-108.07,0-49.32,40.52-89.3,90.5-89.3s90.51,40,90.51,89.3c1.31,47.35,25.41,72.22,25.35,108.07-.09,58.64-48.14,106.2-107.57,106.47Z"/><g class="cls-4"><rect class="cls-5" x="221.63" y="314.62" width="84" height="84"/></g><g class="cls-6"><path class="cls-7" d="M113.85,96.62q1.8,89.7,11,116.13T170,259.6m121.66-167q1.8,89.72,11,116.14t45.14,46.84"/></g><path class="cls-7" d="M312.31,459.51q-6,11.43-8.71,32.53T311,544.48"/><path class="cls-8" d="M217.25,466.87q-8.17,9.94-15.27,30t-3.69,52.82"/><path class="cls-9" d="M223.63,252.62q4-6,12-6t12,6m32,0q4-6,12-6t12,6"/></svg>