<svg id="Слой_1" data-name="Слой 1" xmlns="http://www.w3.org/2000/svg" xmlns:xlink="http://www.w3.org/1999/xlink" viewBox="0 0 491.99 625.73"><defs><style>.cls-1,.cls-10,.cls-11,.cls-2,.cls-5,.cls-9{fill:none;}.cls-2{clip-path:url(#clip-path);}.cls-3{clip-path:url(#clip-path-3);}.cls-4{fill:#4de1b4;}.cls-10,.cls-11,.cls-5,.cls-9{stroke:#000;stroke-miterlimit:10;}.cls-5,.cls-9{stroke-width:20px;}.cls-6{clip-path:url(#clip-path-4);}.cls-7{fill:#221c1c;}.cls-8{clip-path:url(#clip-path-5);}.cls-10,.cls-11,.cls-9{stroke-linecap:round;}.cls-10{stroke-width:20px;}.cls-11{stroke-width:8px;}</style><clipPath id="clip-path"><rect class="cls-1" x="-263.28" y="-47.43" width="1336" height="816"/></clipPath><clipPath id="clip-path-3"><path class="cls-2" d="M278.76,439.46H262.51C203,439.37,154.68,391.76,154.61,333c0-34.95,24.39-61.6,25.35-108.06,0-49.33,40.52-89.31,90.51-89.31S361,175.6,361,224.93c1.31,47.34,25.4,72.22,25.35,108.06-.09,58.64-48.15,106.2-107.57,106.47Z"/></clipPath><clipPath id="clip-path-4"><path class="cls-2" d="M270.72,368.57a40,40,0,1,0-40-40,40,40,0,0,0,40,40Z"/></clipPath><clipPath id="clip-path-5"><rect class="cls-1" x="-263.16" y="-47.43" width="1335.88" height="816"/></clipPath></defs><g class="cls-3"><rect class="cls-4" x="152.57" y="133.62" width="235.81" height="307.84"/></g><path class="cls-5" d="M278.76,439.46H262.51C203,439.37,154.68,391.76,154.61,333c0-34.95,24.39-61.6,25.35-108.06,0-49.33,40.52-89.31,90.51-89.31S361,175.6,361,224.93c1.31,47.34,25.4,72.22,25.35,108.06-.09,58.64-48.15,106.2-107.57,106.47Z"/><g class="cls-6"><rect class="cls-7" x="228.72" y="286.57" width="84" height="84"/></g><g class="cls-8"><path class="cls-9" d="M121,68.57q1.8,89.72,11,116.14t45.14,46.84m121.65-167q1.81,89.72,11,116.14t45.15,46.85"/></g><path class="cls-9" d="M319.4,431.46q-5.94,11.43-8.7,32.53t7.36,52.44"/><path class="cls-10" d="M224.35,438.82q-8.19,9.94-15.27,30t-3.7,52.83"/><path class="cls-11" d="M230.72,224.57q4-6,12-6t12,6m32,0q4-6,12-6t12,6"/></svg>