<svg id="Слой_1" data-name="Слой 1" xmlns="http://www.w3.org/2000/svg" viewBox="0 0 491.99 684.33"><defs><style>.cls-1,.cls-3,.cls-4,.cls-5{fill:none;stroke:#fff;stroke-miterlimit:10;}.cls-1,.cls-3{stroke-width:20px;}.cls-2{fill:#fff;}.cls-3,.cls-4,.cls-5{stroke-linecap:round;}.cls-4{stroke-width:20px;}.cls-5{stroke-width:8px;}</style></defs><path class="cls-1" d="M269.3,425.44H253.05c-59.56-.09-107.83-47.7-107.9-106.46,0-35,24.38-61.61,25.35-108.07,0-49.32,40.52-89.31,90.51-89.31s90.51,40,90.51,89.31c1.31,47.34,25.4,72.22,25.35,108.07-.09,58.63-48.15,106.2-107.57,106.46Z"/><path class="cls-2" d="M261.26,354.56a40,40,0,1,0-40-40,40,40,0,0,0,40,40Z"/><path class="cls-3" d="M111.49,54.56q1.8,89.7,11,116.13t45.14,46.85m121.65-167q1.8,89.7,11,116.13t45.15,46.85"/><path class="cls-3" d="M309.94,417.45Q304,428.88,301.23,450t7.37,52.44"/><path class="cls-4" d="M214.89,424.81q-8.19,9.94-15.28,30t-3.69,52.83"/><path class="cls-5" d="M221.26,210.56q4-6,12-6t12,6m32,0q4-6,12-6t12,6"/></svg>